<svg id="Layer_1" data-name="Layer 1" xmlns="http://www.w3.org/2000/svg" viewBox="0 0 1007.11 1043.29"><defs><style>.cls-1{fill:#474545;}.cls-2{fill:#7d7d7d;}.cls-3{fill:#7c7c7c;}.cls-4{fill:#7a7a7a;}.cls-5{fill:#828282;}.cls-6{fill:#fc566f;}.cls-7{fill:#fcfcfc;}.cls-8{fill:#fb556e;}.cls-9{fill:#fcfafa;}.cls-10{fill:#f45f76;}.cls-11{fill:#f55f76;}.cls-12{fill:#f5566e;}.cls-13{fill:#777;}.cls-14{fill:#444;}</style></defs><path class="cls-1" d="M865.49,697l-1.57,2.82-2.5.24c-1.67,1-3.69,1.73-5,3.1-8.16,8.81-15.71,18.21-24.31,26.57-12.84,12.47-26.31,24.31-39.66,36.25-3.15,2.82-6.92,5-10.39,7.46-3.88,2.77-8.37,5-11.49,8.45C763,790.22,755.94,799,749,807.92c-6.8,8.69-12.81,18-19.82,26.49-14.38,17.43-29.19,34.51-43.83,51.74l-1.83,7.09-.15.22c-5.32-.07-6.05,3.38-5.88,7.51l-.08.14c-2,1.26-4.4,2.17-5.92,3.86-7.09,7.87-14,15.89-20.83,24q-16.1,19-32,38.15c-12.65,15.28-25.14,30.7-37.79,46-10.28,12.43-21,24.52-30.94,37.18-6.57,8.34-14.13,11.12-25.55,7.69-7.77-2.33-10.41-6.75-10.57-17.76,0-2,0-4,0-6,0-55.71-.07-111.42.09-167.13,0-6.37-1.48-11.27-8.33-12.27-16-2.33-32.16-3.56-48-6.47-17.62-3.24-35-7.7-52.42-11.92-27.26-6.61-51.21-20.79-75.91-33.13-14.88-7.43-30.15-14.68-43.5-24.35-16.87-12.23-32-26.82-47.83-40.45-21.65-18.64-38.18-41.7-54.64-64.52-11.27-15.63-19.88-33.22-28.89-50.33-12.08-23-19.79-47.51-27.92-72.09-11.47-34.64-13.08-70.27-17-105.81-1-9.16-3-18.22-4.41-27.34-1.65-10.57-3.86-21.12-4.61-31.76a195.13,195.13,0,0,1,6.31-66.08c3.47-12.54,6.61-25.52,12.54-37,8.29-16,19.14-30.8,28.64-46.25,1.59-2.59,1.88-6,2.78-9q6.38-7,12.76-13.93,2.31-2.08,4.64-4.15l7.63-8,4.21-2.56-.47-2.41c-5.32-.87-10.65-2.46-16-2.5-36-.22-71.93,0-107.89-.23-8.94-.07-17-2.09-21.73-11.63-6.83-13.61,2-29.34,17.37-29.34,53.82,0,107.64.09,161.45-.17,4.83,0,10.58-1.11,14.3-3.83,12.36-9.06,24-19,35.88-28.76,8.21-6.71,15.68-14.54,24.6-20.12q28.2-17.64,57.63-33.32c26.92-14.33,56-23.72,85.44-31,21-5.2,42.89-6.73,64.39-9.86a127.21,127.21,0,0,1,13.55-1.67c13.19-.49,26.44-1.57,39.56-.79,15.86,1,31.7,3.1,47.41,5.6,16,2.55,32.46,4.36,47.56,9.7,29.37,10.38,58.38,22,86.65,35.06a277.18,277.18,0,0,1,49.89,29.88c17.15,12.82,32,28.58,48.52,42.31A31.56,31.56,0,0,0,845,153.28c13.71,1,27.53.31,41.3.31q60.06,0,120.13,0c10.22,0,16.45,3.61,19.17,10.7,7,18.11-1.68,30.35-21.47,30.37-37.24,0-74.48-.07-111.72.14-3.56,0-7.15,1.73-10.61,3-.2.07.6,2.88.94,4.41l0,0c2.94,4.53,5.13,9.85,9,13.45a226.14,226.14,0,0,1,48.38,66.1c2.53,5.16,4.77,10.46,7.14,15.69,3.89,17.25,9.11,34.34,11.28,51.8,2.09,16.75,4.34,34.64.61,50.69-6.95,29.87-5,60.55-11.84,90.25-3.4,14.78-5,29.93-8,44.81-2.53,12.7-5.84,25.25-8.8,37.86C926.61,582,922.68,591.1,919,600.3c-.28.69,1.09,2,1.69,3.09l-2.44,5.94-1.74-.29q-2.26,3.87-4.51,7.75c.33,1.07.66,2.13,1,3.2q-1.44,2.84-2.9,5.67c-4.25,1.64-9.87,10.8-9.11,15,0,.21.86.28,1.31.42l-1.64,4.34-1.06,1.4c-.17.54-.33,1.08-.5,1.62L898,649.78l-.19.11L896.18,651c-1.73,1-4.09,1.59-5.07,3.07-6,9.13-11.71,18.46-17.51,27.72l-1.42,1.64q-1.36,4-2.74,8a1.31,1.31,0,0,1-.69.91l-1.57,1.12-3.72,2Zm-649-122.26c-1.59-2.38-2.69-5.39-4.85-7-11.06-8.39-22.26-16.61-33.71-24.46-2.58-1.76-8.34-3.41-9.19-2.36-2.22,2.71-4,7.29-3.29,10.52a107.21,107.21,0,0,0,7.92,22.72c9.87,20.41,19.49,41,30.77,60.64,11.14,19.37,23.51,38.12,40.1,53.72,11.52,10.84,22.63,22.1,33.77,33.32,20.51,20.67,45.85,34.72,70.45,49.6,12.72,7.69,27.11,12.69,40.71,19,26.74,12.33,55.55,17.58,84.18,22.65,17.35,3.07,35.36,2.88,53.1,3.37,19.07.54,25.8,6.74,25.81,25.55,0,40.34-.08,80.68.14,121,0,4.12,1.82,8.22,2.8,12.33l3.2,1.15c3.87-3.48,8.19-6.57,11.52-10.5,11-13,22-26.11,32.3-39.67,3.78-5,5.68-11.35,8.43-17.09,9.21-11.41,18.35-22.88,27.66-34.22q43.79-53.29,87.76-106.47c6.74-8.13,13.22-16.94,21.52-23.24,24.93-18.9,48.86-38.78,69.25-62.48a384.4,384.4,0,0,0,71.42-124c1.61-4.56,2.62-9.32,4.32-15.48-97.47,75.2-196.33,79.08-298.07,12.69-1,1.9-2,3.39-2.71,5-12.24,27.41-24.64,54.75-36.59,82.29-4.79,11-12.53,18.07-24.62,18.46s-20-6.41-24.7-17c-8.55-19.12-17-38.28-25.57-57.39-4.88-10.9-9.87-21.75-15-33.12-3.57,2.43-6,4.16-8.58,5.84-62.31,41.43-129.51,52.14-201.53,30.66-12.84-3.83-25.1-9.55-37.62-14.4ZM559.31,342.1q-.54,7.38-1.07,14.76c.06,12.75-1.15,25.66.42,38.23,5.89,47.19,26.75,86.89,64.57,116.77,46.49,36.74,99.18,49,157,33.95,63.59-16.53,105-57.35,125.71-118.49,2.6-7.67-.31-17.17-.67-25.82q-.25-9.22-.52-18.46c-.11-.68-.21-1.36-.32-2q-1.33-7.37-2.66-14.72c-.27-1.58-.53-3.17-.8-4.75l-2.61-10.25.85-.76c-.42-.4-.84-.8-1.27-1.19l-2.76-10.24-1.95-6.27c-7.71-24.85-18.69-48.29-30.07-71.7-11-22.65-29.22-36.37-51.32-46-33.49-14.65-68.17-20.82-104.92-14.3C683,205,660.43,212.66,640.38,225.85c-37.4,24.63-64.12,57.74-77.15,100.83l-1.41,1,.76.87c-.38,1.38-.75,2.77-1.13,4.15C560.74,335.85,560,339,559.31,342.1ZM182.07,479.72c8.08,8.64,15.56,17.95,24.36,25.81,37.65,33.67,82.19,48.91,132.69,44.45,59.17-5.23,104.73-33.68,136.76-83,9.77-15,17.66-31.06,20.52-49,2.32-9.27,5.81-18.44,6.7-27.85,1.85-19.64-.23-39.1-5.06-58.37-17.48-69.69-77.36-123-149.52-132.78-39.16-5.33-76.21,2.41-110.78,20.78-9.45,5-20.05,11.42-25.28,20A601.55,601.55,0,0,0,176.79,309c-11.33,25.68-16.83,53.2-21.28,80.88-4,25-2.15,48.72,12.36,70.35C172.35,466.85,177.32,473.21,182.07,479.72Zm581-331.31c-83.59-65.12-177.91-89.82-283-78.29C426.45,76,312.43,123.35,300.24,147.48,402.78,143.23,479.63,185,530.78,274c22.6-43.15,54.68-75.85,96.93-98.17C669.77,153.62,714.91,144.62,763.07,148.41ZM503.4,517c9.25,19,17.91,36.9,26.71,55,8.91-18.51,17.48-36.33,26.27-54.58-8.23-12.59-17.32-26.47-26.4-40.35Z" transform="translate(-25.68 -20.3)"/><path class="cls-2" d="M882.75,202.19c-.34-1.53-1.14-4.34-.94-4.41,3.46-1.23,7.05-2.94,10.61-3,37.24-.21,74.48-.11,111.72-.14,19.79,0,28.42-12.26,21.47-30.37-2.72-7.09-8.95-10.68-19.17-10.7q-60.06-.06-120.13,0c-13.77,0-27.59.65-41.3-.31a31.56,31.56,0,0,1-16.93-6.67c-16.5-13.73-31.37-29.49-48.52-42.31a277.18,277.18,0,0,0-49.89-29.88c-28.27-13-57.28-24.68-86.65-35.06-15.1-5.34-31.57-7.15-47.56-9.7-15.71-2.5-31.55-4.65-47.41-5.6-13.12-.78-26.37.3-39.56.79a127.21,127.21,0,0,0-13.55,1.67c-21.5,3.13-43.41,4.66-64.39,9.86-29.45,7.3-58.52,16.69-85.44,31Q315.72,83,287.48,100.72c-8.92,5.58-16.39,13.41-24.6,20.12C251,130.55,239.36,140.54,227,149.6c-3.72,2.72-9.47,3.8-14.3,3.83-53.81.26-107.63.16-161.45.17-15.4,0-24.2,15.73-17.37,29.34,4.78,9.54,12.79,11.56,21.73,11.63,36,.27,71.93,0,107.89.23,5.33,0,10.66,1.63,16,2.5l.47,2.41-4.21,2.56c-2.27-1.18-4.55-3.37-6.83-3.38-37.72-.21-75.47-.95-113.16.19-19.7.6-29.17-13.83-30-25.14-1-13.82,11.78-25.42,27.8-25.63s32.12,0,48.18-.05c36.71,0,73.41-.16,110.12.12,7.93.06,13.65-2.45,19.55-7.8,36.3-32.92,75.17-62.42,120.67-82,17.76-7.65,36.39-13.32,54.62-19.89l3.12-1.25c22.85-4.83,45.6-10.22,68.59-14.26,12-2.1,24.35-2.11,36.56-2.57A429,429,0,0,1,646.69,36.11,421.84,421.84,0,0,1,752.91,82.24c29.69,18.07,56.5,39.6,81.43,63.62,2.48,2.4,7.28,3.41,11,3.42,53.59.22,107.17.11,160.76.19,15.24,0,26.14,10,26.67,24,.55,14.85-10.28,25.54-26.32,25.58-37,.1-74-.07-111,.17C891.21,199.28,887,201.17,882.75,202.19Z" transform="translate(-25.68 -20.3)"/><path class="cls-3" d="M150.71,228.31c-.9,3-1.19,6.37-2.78,9-9.5,15.45-20.35,30.2-28.64,46.25-5.93,11.45-9.07,24.43-12.54,37a195.13,195.13,0,0,0-6.31,66.08c.75,10.64,3,21.19,4.61,31.76,1.42,9.12,3.41,18.18,4.41,27.34,3.87,35.54,5.48,71.17,17,105.81,8.13,24.58,15.84,49.14,27.92,72.09,9,17.11,17.62,34.7,28.89,50.33,16.46,22.82,33,45.88,54.64,64.52,15.83,13.63,31,28.22,47.83,40.45,13.35,9.67,28.62,16.92,43.5,24.35,24.7,12.34,48.65,26.52,75.91,33.13,17.41,4.22,34.8,8.68,52.42,11.92,15.86,2.91,32,4.14,48,6.47,6.85,1,8.35,5.9,8.33,12.27-.16,55.71-.09,111.42-.09,167.13,0,2,0,4,0,6,.16,11,2.8,15.43,10.57,17.76,11.42,3.43,19,.65,25.55-7.69,10-12.66,20.66-24.75,30.94-37.18,12.65-15.29,25.14-30.71,37.79-46q15.89-19.17,32-38.15c6.84-8.08,13.74-16.1,20.83-24,1.52-1.69,3.92-2.6,5.92-3.86-4.87,6.69-9.4,13.66-14.67,20-15.14,18.35-30.67,36.4-45.87,54.71q-29.28,35.25-58.25,70.73c-5.38,6.56-9.36,14.53-18.65,16.82l-14,.17c-14.81-4.52-16.72-12.62-16.71-25q.08-83.55,0-167.1c0-11.16-.13-10.46-11.21-11.47-13.95-1.28-27.85-3.48-41.65-5.94-29.21-5.2-58.06-12.06-85.22-24.14-16.66-7.41-32.45-16.73-48.95-24.53-37.18-17.59-68.13-43.54-96.42-72.27-36.53-37.09-66.67-79-85.58-127.77-7.58-19.55-13.52-39.7-20.21-59.58l-1.23-3.12c-6.8-19.09-9.16-38.95-10.36-59l-.66-3.76c.09-28.05-7.06-55.1-11.56-82.52-.81-4.93-.4-10.05-.56-15.08l0-16.76c1.3-51.22,19.18-96.2,52.16-135.49C148.49,229.21,149.73,228.87,150.71,228.31Z" transform="translate(-25.68 -20.3)"/><path class="cls-4" d="M685.33,886.15c14.64-17.23,29.45-34.31,43.83-51.74,7-8.5,13-17.8,19.82-26.49,7-8.89,14.06-17.7,21.63-26.07,3.12-3.45,7.61-5.68,11.49-8.45,3.47-2.48,7.24-4.64,10.39-7.46,13.35-11.94,26.82-23.78,39.66-36.25,8.6-8.36,16.15-17.76,24.31-26.57,1.27-1.37,3.29-2.08,5-3.1l0,2.94a348.57,348.57,0,0,1-61.21,61,287.83,287.83,0,0,0-53.44,54.09c-14.65,19.17-30.74,37.25-46.21,55.81l-3.2,4.56-7.67,7.63Z" transform="translate(-25.68 -20.3)"/><path class="cls-5" d="M930.49,572.87c3-12.61,6.27-25.16,8.8-37.86,3-14.88,4.62-30,8-44.81,6.83-29.7,4.89-60.38,11.84-90.25,3.73-16.05,1.48-33.94-.61-50.69-2.17-17.46-7.39-34.55-11.28-51.8l2.49-.31L958.57,323l.6,3.25q1.08,5.21,2.17,10.43c.31,1.56.61,3.13.92,4.7q1,9.78,2,19.55l0,30.43c-.15,3.5-.29,7-.44,10.48-.3,1.07-.61,2.13-.91,3.19l-.66,5.88c-.36,1.56-.72,3.11-1.07,4.66-.16,1.48-.32,3-.47,4.42-.39,1-.78,2.08-1.18,3.12-1.67,17.22-2.61,34.56-5.21,51.64-3.61,23.75-8.46,47.3-12.77,70.94-.18,1-.31,2-.46,3l-1.23,3.16L933,573.23Z" transform="translate(-25.68 -20.3)"/><path class="cls-2" d="M949.75,297.15l-2.49.31c-2.37-5.23-4.61-10.53-7.14-15.69a226.14,226.14,0,0,0-48.38-66.1c-3.83-3.6-6-8.92-9-13.45,16.19,11.42,28,26.73,39.46,42.5C934.07,260.94,943.75,278,949.75,297.15Z" transform="translate(-25.68 -20.3)"/><path class="cls-4" d="M873.6,681.81c5.8-9.26,11.5-18.59,17.51-27.72,1-1.48,3.34-2.07,5.07-3.06.13.64.26,1.28.4,1.92l-2,3.22-1.1,1.3-3.5,6.27-1.09,1.32-5,7.75-1.15,1.37-1.89,3.17-1.16,1.39-3.12,4.58Z" transform="translate(-25.68 -20.3)"/><path class="cls-4" d="M930.49,572.87l2.49.36c-.36.9-.72,1.79-1.07,2.69-.22.1-.62.22-.61.32a5.83,5.83,0,0,0,.24,1.16l-1.22,3.06c-.47,1.53-1,3-1.42,4.58l-.57,3-2.67,4.55q-2.49,5.41-5,10.84c-.6-1-2-2.4-1.69-3.09C922.68,591.1,926.61,582,930.49,572.87Z" transform="translate(-25.68 -20.3)"/><path class="cls-5" d="M902.26,641.05c-.45-.14-1.27-.21-1.31-.42-.76-4.17,4.86-13.33,9.11-15Z" transform="translate(-25.68 -20.3)"/><path class="cls-3" d="M685.33,886.15l4.33-.09q-3.07,3.59-6.16,7.18Z" transform="translate(-25.68 -20.3)"/><path class="cls-4" d="M912,616.79q2.25-3.87,4.51-7.75c0,1.57,0,3.14,0,4.71l-1.69,3Z" transform="translate(-25.68 -20.3)"/><path class="cls-3" d="M677.47,901c-.17-4.13.56-7.58,5.88-7.51Z" transform="translate(-25.68 -20.3)"/><path class="cls-4" d="M869.44,691.42q1.38-4,2.74-8l1.4,2.78c-.12.57-.23,1.15-.34,1.72l-1.14,1.35Z" transform="translate(-25.68 -20.3)"/><path class="cls-2" d="M168.11,210.23q-2.33,2.07-4.64,4.15Q165.78,212.3,168.11,210.23Z" transform="translate(-25.68 -20.3)"/><path class="cls-4" d="M865.49,697l-2-1.52,3.72-2,.36,2Z" transform="translate(-25.68 -20.3)"/><path class="cls-5" d="M873.58,686.22l-1.4-2.78c.48-.54,1-1.08,1.42-1.63l3,1.51Z" transform="translate(-25.68 -20.3)"/><path class="cls-5" d="M912,616.79l2.87-.07L913,620C912.64,618.92,912.31,617.86,912,616.79Z" transform="translate(-25.68 -20.3)"/><path class="cls-5" d="M925.66,592.55l2.67-4.55Z" transform="translate(-25.68 -20.3)"/><path class="cls-5" d="M928.9,585c.47-1.53,1-3,1.42-4.58C929.85,582,929.37,583.51,928.9,585Z" transform="translate(-25.68 -20.3)"/><path class="cls-5" d="M916.54,613.75c0-1.57,0-3.14,0-4.71l1.74.29C917.66,610.8,917.1,612.28,916.54,613.75Z" transform="translate(-25.68 -20.3)"/><path class="cls-5" d="M861.39,703l0-2.94,2.5-.24Z" transform="translate(-25.68 -20.3)"/><path class="cls-5" d="M867.54,695.46l-.36-2,1.57-1.12C868.34,693.37,867.94,694.41,867.54,695.46Z" transform="translate(-25.68 -20.3)"/><path class="cls-5" d="M896.58,653c-.14-.64-.27-1.28-.4-1.92l1.63-1.14Z" transform="translate(-25.68 -20.3)"/><path class="cls-5" d="M931.54,577.4a5.83,5.83,0,0,1-.24-1.16c0-.1.39-.22.61-.32C931.78,576.41,931.66,576.91,931.54,577.4Z" transform="translate(-25.68 -20.3)"/><path class="cls-5" d="M893.53,657.47l1.1-1.3Z" transform="translate(-25.68 -20.3)"/><path class="cls-5" d="M879.77,678.74l1.16-1.39Z" transform="translate(-25.68 -20.3)"/><path class="cls-5" d="M882.82,674.18l1.15-1.37Z" transform="translate(-25.68 -20.3)"/><path class="cls-5" d="M872.1,689.29l1.14-1.35Z" transform="translate(-25.68 -20.3)"/><path class="cls-5" d="M898,649.78l1.06-1.37Z" transform="translate(-25.68 -20.3)"/><path class="cls-5" d="M899.56,646.79l1.06-1.4Z" transform="translate(-25.68 -20.3)"/><path class="cls-5" d="M888.94,665.06l1.09-1.32Z" transform="translate(-25.68 -20.3)"/><path class="cls-6" d="M217.54,576.24c12.52,4.85,24.78,10.57,37.62,14.4,72,21.48,139.22,10.77,201.53-30.66,2.53-1.68,5-3.41,8.58-5.84,5.16,11.37,10.15,22.22,15,33.12,8.55,19.11,17,38.27,25.57,57.39,4.73,10.6,12.76,17.39,24.7,17s19.83-7.43,24.62-18.46c11.95-27.54,24.35-54.88,36.59-82.29.71-1.59,1.66-3.08,2.71-5,101.74,66.39,200.6,62.51,298.07-12.69-1.7,6.16-2.71,10.92-4.32,15.48a384.4,384.4,0,0,1-71.42,124c-20.39,23.7-44.32,43.58-69.25,62.48-8.3,6.3-14.78,15.11-21.52,23.24Q682,821.54,638.29,874.92c-9.31,11.34-18.45,22.81-27.66,34.22l-1.86-.33q-.15-55.95-.3-111.9c0-12.69-.57-13-13.56-11.75a398.12,398.12,0,0,1-89.7-1.61A367.82,367.82,0,0,1,391.1,749.13c-59.29-28.81-108.16-69.8-145.23-123.91C235.23,609.69,226.92,592.61,217.54,576.24Z" transform="translate(-25.68 -20.3)"/><path class="cls-7" d="M182.07,479.72c-4.75-6.51-9.72-12.87-14.2-19.54-14.51-21.63-16.37-45.39-12.36-70.35,4.45-27.68,10-55.2,21.28-80.88a601.55,601.55,0,0,1,35.67-69.16c5.23-8.63,15.83-15,25.28-20,34.57-18.37,71.62-26.11,110.78-20.78,72.16,9.82,132,63.09,149.52,132.78,4.83,19.27,6.91,38.73,5.06,58.37-.89,9.41-4.38,18.58-6.7,27.86a21.39,21.39,0,0,0-2.47,3.53c-11.88,27.29-28.57,51-52.34,69.57-47.88,37.48-101.24,48.5-160,32-40.29-11.34-71.58-35.39-95.43-69.16-1.48-2.09-2.76-4.31-4.13-6.47l-2,2Q181.08,464.57,182.07,479.72ZM225,360.83c-4.06,16.22-1.26,32.62,4.39,48.21,17.56,48.48,66,76,117.18,66.58,57.12-10.46,92.35-60.92,83.74-117.44-6.46-42.43-32.25-70.88-74.26-83.49-13.86-4.16-28.21-6.38-42.88-2.9-6,1.44-6.46,3.69-2.94,8.18,7,9,12.5,18.39,14.42,30.23,6.38,39.23-31,74-69.84,63.54C244.78,371,235.53,365.48,225,360.83Z" transform="translate(-25.68 -20.3)"/><path class="cls-7" d="M895.16,339.09l2.76,10.23.42,2L901,361.52c.26,1.58.53,3.17.8,4.76q1.34,7.37,2.66,14.71c.1.68.21,1.36.32,2.05q.25,9.22.52,18.46c-1.25,2.62-2.86,5.14-3.71,7.89-10.87,35.33-31.28,64.2-61.08,86.27-46.59,34.5-98.66,44.79-154.33,28.51-62.6-18.3-103-60-120.54-122.25-4.11-14.56-5-30-7.35-45.06q.54-7.38,1.07-14.75c.71-3.12,1.43-6.25,2.14-9.39.38-1.38.75-2.77,1.13-4.14.21-.63.43-1.26.65-1.9,13-43.09,39.75-76.2,77.15-100.83,20-13.19,42.57-20.83,66.52-25.07,36.75-6.52,71.43-.35,104.92,14.3,22.1,9.67,40.31,23.39,51.32,46,11.38,23.41,22.36,46.85,30.07,71.69ZM634.51,357.16c-9.12,48,20.16,97.36,66.83,113.12,48.32,16.31,100.73-.79,126-45.66a103.67,103.67,0,0,0-28.22-134.23c-25.3-19.13-71.06-25.89-83.21-14.62,10.68,11.23,18,24.14,18.8,40,.79,16.29-4.85,30.29-15.9,42-8.53,9-19.25,15.08-31.77,16.89C667.27,377.53,649.73,372.38,634.51,357.16Z" transform="translate(-25.68 -20.3)"/><path class="cls-8" d="M763.07,148.41c-48.16-3.79-93.3,5.21-135.36,27.43-42.25,22.32-74.33,55-96.93,98.17-51.15-89-128-130.78-230.54-126.53C312.43,123.35,426.45,76,480.09,70.12,585.16,58.59,679.48,83.29,763.07,148.41Z" transform="translate(-25.68 -20.3)"/><path class="cls-9" d="M217.54,576.24c9.38,16.37,17.69,33.45,28.33,49,37.07,54.11,85.94,95.1,145.23,123.91a367.82,367.82,0,0,0,114.11,34.42,398.12,398.12,0,0,0,89.7,1.61c13-1.25,13.52-.94,13.56,11.75q.16,56,.3,111.9c-1.53,2.88-2.63,6.09-4.65,8.59-8.87,11-18,21.86-27,32.74q-9.27,11.16-18.58,22.27l-2.09-.85c0-3.17,0-6.33,0-9.5q0-62,0-124.06c0-15.73-9.76-25.43-25.8-25.24-30.21.36-59.87-3.84-89.19-10.51-41.9-9.53-80.54-26.72-116.47-49.85a378.58,378.58,0,0,1-91.4-82.76C211,641.52,194,610.4,179.9,577.59c-4.6-10.73-7.86-22-11.74-33l1.86-.77q23.23,15.45,46.45,30.92Z" transform="translate(-25.68 -20.3)"/><path class="cls-10" d="M558.24,356.86c2.37,15.05,3.24,30.5,7.35,45.06,17.59,62.22,57.94,104,120.54,122.25,55.67,16.28,107.74,6,154.33-28.51,29.8-22.07,50.21-50.94,61.08-86.27.85-2.75,2.46-5.27,3.71-7.89.36,8.65,3.27,18.15.67,25.82-20.71,61.14-62.12,102-125.71,118.49-57.8,15-110.49,2.79-157-33.95-37.82-29.88-58.68-69.58-64.57-116.77C557.09,382.52,558.3,369.61,558.24,356.86Z" transform="translate(-25.68 -20.3)"/><path class="cls-11" d="M182.07,479.72q-1-15.15-2-30.28l2-2c1.37,2.16,2.65,4.38,4.13,6.47,23.85,33.77,55.14,57.82,95.43,69.16,58.72,16.52,112.08,5.5,160-32,23.77-18.6,40.46-42.28,52.34-69.57A21.39,21.39,0,0,1,496.4,418c-2.86,18-10.75,34-20.52,49-32,49.31-77.59,77.76-136.76,83-50.5,4.46-95-10.78-132.69-44.45C197.63,497.67,190.15,488.36,182.07,479.72Z" transform="translate(-25.68 -20.3)"/><path class="cls-3" d="M216.47,574.7Q193.25,559.23,170,543.78l-1.86.77c3.88,11,7.14,22.31,11.74,33,14.06,32.81,31.14,63.93,53.62,92a378.58,378.58,0,0,0,91.4,82.76c35.93,23.13,74.57,40.32,116.47,49.85,29.32,6.67,59,10.87,89.19,10.51,16-.19,25.79,9.51,25.8,25.24q.06,62,0,124.06c0,3.17,0,6.33,0,9.5l2.09.85q9.3-11.13,18.58-22.27c9-10.88,18.18-21.71,27-32.74,2-2.5,3.12-5.71,4.65-8.59l1.86.33c-2.75,5.74-4.65,12.11-8.43,17.09-10.31,13.56-21.28,26.65-32.3,39.67-3.33,3.93-7.65,7-11.52,10.5l-3.2-1.15c-1-4.11-2.78-8.21-2.8-12.33-.22-40.33-.13-80.67-.14-121,0-18.81-6.74-25-25.81-25.55-17.74-.49-35.75-.3-53.1-3.37-28.63-5.07-57.44-10.32-84.18-22.65-13.6-6.28-28-11.28-40.71-19-24.6-14.88-49.94-28.93-70.45-49.6-11.14-11.22-22.25-22.48-33.77-33.32-16.59-15.6-29-34.35-40.1-53.72-11.28-19.64-20.9-40.23-30.77-60.64a107.21,107.21,0,0,1-7.92-22.72c-.74-3.23,1.07-7.81,3.29-10.52.85-1.05,6.61.6,9.19,2.36,11.45,7.85,22.65,16.07,33.71,24.46C213.78,569.31,214.88,572.32,216.47,574.7Z" transform="translate(-25.68 -20.3)"/><path class="cls-12" d="M503.4,517,530,477.07c9.08,13.88,18.17,27.76,26.4,40.35C547.59,535.67,539,553.49,530.11,572,521.31,553.88,512.65,536,503.4,517Z" transform="translate(-25.68 -20.3)"/><path class="cls-10" d="M561.45,332.72c-.71,3.14-1.43,6.27-2.14,9.39C560,339,560.74,335.85,561.45,332.72Z" transform="translate(-25.68 -20.3)"/><path class="cls-10" d="M895.16,339.09l-1.95-6.28Z" transform="translate(-25.68 -20.3)"/><path class="cls-10" d="M901.75,366.28c-.27-1.59-.54-3.18-.8-4.76C901.22,363.11,901.48,364.7,901.75,366.28Z" transform="translate(-25.68 -20.3)"/><path class="cls-10" d="M563.23,326.68c-.22.64-.44,1.27-.65,1.9-.25-.3-.5-.59-.76-.88Z" transform="translate(-25.68 -20.3)"/><path class="cls-10" d="M898.34,351.28l-.42-2,1.27,1.2Z" transform="translate(-25.68 -20.3)"/><path class="cls-10" d="M904.73,383c-.11-.69-.22-1.37-.32-2.05C904.52,381.68,904.62,382.36,904.73,383Z" transform="translate(-25.68 -20.3)"/><path class="cls-13" d="M225,360.83c10.53,4.65,19.78,10.2,29.81,12.91,38.79,10.48,76.22-24.31,69.84-63.54-1.92-11.84-7.37-21.23-14.42-30.23-3.52-4.49-3.09-6.74,2.94-8.18,14.67-3.48,29-1.26,42.88,2.9,42,12.61,67.8,41.06,74.26,83.49,8.61,56.52-26.62,107-83.74,117.44C295.35,485,247,457.52,229.39,409,223.74,393.45,220.94,377.05,225,360.83Zm5.29,6.33c-5.07,44.77,19.51,80.81,62.2,100.07,29.49,13.3,90-1.77,107.7-24.79,36.61-47.71,32.22-93,5.1-129-14.37-19.11-34.11-30.71-57.71-35.18-10.17-1.92-20.67-4.05-33.75-.38,17.3,14.76,15.61,33.08,14.7,51.39-1,20.53-13.81,34.56-29.53,43.75C280,384.12,247.88,384.61,230.29,367.16Z" transform="translate(-25.68 -20.3)"/><path class="cls-4" d="M634.51,357.16c15.22,15.22,32.76,20.37,52.55,17.5,12.52-1.81,23.24-7.88,31.77-16.89,11-11.67,16.69-25.67,15.9-42-.77-15.9-8.12-28.81-18.8-40,12.15-11.27,57.91-4.51,83.21,14.62a103.67,103.67,0,0,1,28.22,134.23c-25.29,44.87-77.7,62-126,45.66C654.67,454.52,625.39,405.21,634.51,357.16Zm89.78-78.93c26.32,27.7,17.37,64.58-.8,81.64-10.28,9.66-21.31,19.18-36.36,20.38-17.73,1.42-35.23.74-49.43-14a209.17,209.17,0,0,0,4.51,35.64c4.86,21.15,19.32,36.28,34.94,50.13,12.28,10.9,28.12,16.18,43.85,17.57,17.35,1.53,34.82,1.63,52.4-5,27-10.18,44.31-28.34,54.22-54.05,5.86-15.22,10.07-31.1,6.4-47.72-2.2-9.94-3.37-20.42-7.52-29.54a116.09,116.09,0,0,0-18.85-28.83,69.43,69.43,0,0,0-23-16.68,169.3,169.3,0,0,0-36.07-11C740.87,275.31,732.15,273,724.29,278.23Z" transform="translate(-25.68 -20.3)"/><path class="cls-14" d="M230.29,367.16c17.59,17.45,49.71,17,68.71,5.84,15.72-9.19,28.5-23.22,29.53-43.75.91-18.31,2.6-36.63-14.7-51.39,13.08-3.67,23.58-1.54,33.75.38,23.6,4.47,43.34,16.07,57.71,35.18,27.12,36.06,31.51,81.31-5.1,129-17.66,23-78.21,38.09-107.7,24.79C249.8,448,225.22,411.93,230.29,367.16Z" transform="translate(-25.68 -20.3)"/><path class="cls-14" d="M724.29,278.23c7.86-5.26,16.58-2.92,24.33-1.41a169.3,169.3,0,0,1,36.07,11,69.43,69.43,0,0,1,23,16.68,116.09,116.09,0,0,1,18.85,28.83c4.15,9.12,5.32,19.6,7.52,29.54,3.67,16.62-.54,32.5-6.4,47.72-9.91,25.71-27.18,43.87-54.22,54.05-17.58,6.63-35,6.53-52.4,5-15.73-1.39-31.57-6.67-43.85-17.57-15.62-13.85-30.08-29-34.94-50.13a209.17,209.17,0,0,1-4.51-35.64c14.2,14.73,31.7,15.41,49.43,14,15-1.2,26.08-10.72,36.36-20.38C741.66,342.81,750.61,305.93,724.29,278.23Z" transform="translate(-25.68 -20.3)"/></svg>