<?xml version="1.0" encoding="utf-8"?>
<!-- Generator: Adobe Illustrator 24.2.0, SVG Export Plug-In . SVG Version: 6.00 Build 0)  -->
<svg version="1.1" id="Layer_1" xmlns="http://www.w3.org/2000/svg" xmlns:xlink="http://www.w3.org/1999/xlink" x="0px" y="0px"
	 viewBox="0 0 792 612" style="enable-background:new 0 0 792 612;" xml:space="preserve">
<style type="text/css">
	.st0{fill:#FCFCFC;}
	.st1{fill:#555555;}
	.st2{fill:#5A5A5A;}
	.st3{fill:#595959;}
	.st4{fill:#5B5B5B;}
	.st5{fill:#545454;}
	.st6{fill:#565656;}
	.st7{fill:#5D5D5D;}
	.st8{fill:#808080;}
	.st9{fill:#838383;}
	.st10{fill:#7D7D7D;}
	.st11{fill:#707070;}
	.st12{fill:#737373;}
	.st13{fill:#5E5E5E;}
	.st14{fill:#6A6A6A;}
	.st15{fill:#858585;}
	.st16{fill:#777777;}
	.st17{fill:#757575;}
	.st18{fill:#606060;}
	.st19{fill:#727272;}
	.st20{fill:#767676;}
	.st21{fill:#787878;}
	.st22{fill:#747474;}
	.st23{fill:#6F6F6F;}
	.st24{fill:#818181;}
	.st25{fill:#8B8B8B;}
	.st26{fill:#848484;}
	.st27{fill:#7A7A7A;}
	.st28{fill:#585858;}
	.st29{fill:#6E6E6E;}
	.st30{fill:#7F7F7F;}
	.st31{fill:#929292;}
	.st32{fill:#797979;}
	.st33{fill:#7C7C7C;}
	.st34{fill:#828282;}
	.st35{fill:#9A9A9A;}
	.st36{fill:#959595;}
	.st37{fill:#8A8A8A;}
	.st38{fill:#5F5F5F;}
	.st39{fill:#8F8F8F;}
	.st40{fill:#878787;}
	.st41{fill:#656565;}
	.st42{fill:#7E7E7E;}
	.st43{fill:#868686;}
	.st44{fill:#444444;}
	.st45{fill:#535353;}
	.st46{fill:#575757;}
	.st47{fill:#676767;}
	.st48{fill:#FE556F;}
	.st49{fill:#FEFEFE;}
	.st50{fill:#FD556F;}
	.st51{fill:#FD556E;}
	.st52{fill:#F56D81;}
	.st53{fill:#F56E83;}
	.st54{fill:#F16177;}
	.st55{fill:#F16C80;}
	.st56{fill:#F67185;}
	.st57{fill:#5C5C5C;}
	.st58{fill:#674045;}
	.st59{fill:#635E5F;}
	.st60{fill:#F86A7F;}
	.st61{fill:#D35769;}
	.st62{fill:#673E44;}
	.st63{fill:#636363;}
	.st64{fill:#757474;}
	.st65{fill:#CC5667;}
	.st66{fill:#77424A;}
	.st67{fill:#6D6D6D;}
	.st68{fill:#F9677D;}
	.st69{fill:#7B7B7B;}
	.st70{fill:#919191;}
	.st71{fill:#B0B0B0;}
	.st72{fill:#9B9B9B;}
	.st73{fill:#888888;}
	.st74{fill:#939393;}
	.st75{fill:#FA687E;}
	.st76{fill:#8D8D8D;}
	.st77{fill:#F3F3F3;}
	.st78{fill:#6C6C6C;}
	.st79{fill:#AFAFAF;}
</style>
<g>
	<g>
		<path class="st0" d="M395.67,961.29c-217.34,0-434.67,0-652.01,0.06c-2.46,0-3.01-0.55-3.01-3.01
			c0.06-434.89,0.06-869.79,0-1304.68c0-2.46,0.55-3.01,3.01-3.01c434.89,0.06,869.79,0.06,1304.68,0c2.46,0,3.01,0.55,3.01,3.01
			c-0.06,434.89-0.06,869.79,0,1304.68c0,2.46-0.55,3.01-3.01,3.01C830.78,961.28,613.23,961.29,395.67,961.29z"/>
		<path class="st1" d="M386.64,544.83c0-12.65,0-25.3,0-37.96c0-1.75,0.03-3.48,0.54-5.18c1.2-3.95,3.43-5.99,7.53-6.02
			c12.54-0.1,25.16-0.87,37.61,0.2c13.39,1.15,27.53,11.08,30.8,27.86c5.1,26.11-15.38,44.1-37.65,43.9
			c-3.93-0.03-7.86,0.12-11.78-0.04c-2.43-0.1-3.37,0.9-3.38,3.19c-0.02,4.91-0.07,9.81-0.13,14.72c-0.08,6.06-2.23,8.64-8.26,9.21
			c-11.58,1.09-15.46-1.25-15.31-13.24C386.76,569.26,386.64,557.04,386.64,544.83z"/>
		<path class="st2" d="M178.08,521.9c-7.52-4.83-15.63-6.1-24.07-3.23c-17.83,6.08-23.51,25.72-14.05,40.26
			c8.53,13.12,18.38,15.71,33.44,12.44c2.51-0.55,3.66-1.88,3.46-4.59c-0.21-2.82-0.23-5.68,0-8.5c0.23-2.82-1.18-3.67-3.6-3.71
			c-2.94-0.04-5.89,0.02-8.83-0.08c-5.04-0.17-7.01-2.21-7.18-7.29c-0.35-10.33,1.33-12.11,11.58-12.09c2.72,0,5.44,0.12,8.16,0.19
			c5.63,0.22,11.3-0.79,16.88,0.71c4.2,1.13,5.85,2.78,5.91,7.03c0.15,11.55,0.25,23.11-0.06,34.65c-0.11,4.24-2.78,7.39-6.71,9.25
			c-0.4-0.13-0.63-0.41-0.69-0.84c0.01-0.44,0.09-0.92,0.42-1.2c4.04-3.41,4.32-7.94,4.22-12.79c-0.19-9.37-0.04-18.75-0.06-28.13
			c-0.01-4.01-0.78-4.95-4.67-5.8c-2.91-0.64-5.87-0.33-8.81-0.35c-5.34-0.04-10.69-0.07-16.03,0.01
			c-7.66,0.11-8.02,4.98-6.72,10.92c0.38,1.75,2.03,2.12,3.64,2.18c2.4,0.09,4.8-0.06,7.19,0.1c5.64,0.38,7.56,2.39,7.64,7.99
			c0.04,2.73-0.03,5.45,0.01,8.18c0.05,3.31-1.68,5.25-4.6,6.41c-2.94,1.17-6.02,0.93-9.05,0.85c-4.43-0.12-8.89,0.57-13.25-1.18
			c-3.59-1.45-6.12-4.06-8.82-6.59c-4.26-4-8.24-8.19-9.59-14.11c-2.3-10.13-1.72-19.62,6.06-27.63c4.41-4.54,8.85-8.79,15.6-9.28
			c4.46-0.03,8.91-0.1,13.37,0.03c4.01,0.82,7.72,2.27,10.7,5.22c0.17,0.34,0.16,0.67-0.03,1
			C179.06,522.23,178.57,522.15,178.08,521.9z"/>
		<path class="st3" d="M506.48,66.53c0.19-0.02,0.36,0.02,0.52,0.12c3.55,3.03,6.8,6.39,10.13,9.65c1.95,1.91,4.13,2.83,6.99,2.82
			c22.86-0.1,45.73-0.04,68.59-0.07c3.35-0.01,6.19,0.91,8.31,3.61c0.32,0.76,0.36,1.5-0.14,2.2c-0.55,0.38-1.11,0.2-1.46-0.21
			c-2.36-2.7-5.48-2.71-8.71-2.7c-21.49,0.04-42.99-0.03-64.48,0.07c-5.14,0.02-9.28-1.67-12.84-5.35
			c-9.44-9.77-20-18.25-31.59-25.27c-8.47-5.14-17.58-9.17-26.82-12.85c-6.19-2.47-12.54-4.46-18.84-6.56
			c-5.99-1.99-12.4-2.37-18.55-3.76c-6.63-1.5-13.41-1.2-20.09-2.17c-6.53-0.95-13.27-1.01-19.86,0.37
			c-1.61,0.34-3.23,0.6-4.87,0.52c-5.62-0.26-11.02,1.16-16.47,2.18c-2.47,0.46-4.98,0.41-7.43,1.1
			c-11.45,3.19-22.71,6.91-33.66,11.56c-1.18,0.5-2.33,1.27-3.73,0.92c-0.36-0.17-0.54-0.45-0.53-0.85
			c3.27-3.28,7.72-4.35,11.81-5.88c9.73-3.64,19.51-7.23,29.89-8.71c0.54-0.08,0.99-0.44,1.54-0.53c27.78-6.1,55.29-4.05,82.63,2.76
			c19.23,5.83,37.65,13.46,54.31,24.91c1.24,1.69,3.4,2.09,4.84,3.51C499.75,60.46,503.09,63.52,506.48,66.53z"/>
		<path class="st4" d="M311.19,41.75c0,0.22,0,0.43,0,0.65c-0.13,1.96-1.89,2.22-3.16,2.88c-5.98,3.13-12.1,5.98-17.74,9.77
			c-3.37,2.26-6.53,4.79-9.53,7.41c-6.07,5.29-12.77,9.82-18.55,15.45c-3.07,2.99-6.8,4.07-11.04,4.07
			c-22.13-0.04-44.27,0-66.41-0.04c-3.17-0.01-5.79,0.52-7.17,3.86c-1.98,4.78,0.41,9.44,5.51,10.43c1.51,0.29,3.04,0.23,4.57,0.23
			c13.96,0,27.91,0,41.87,0c1.64,0,3.27-0.02,4.89,0.3c5.62,1.13,6.79,4.1,3.03,8.37c-3.09,3.51-6.39,6.86-9.99,9.88
			c-0.69,0.4-1.36,0.41-1.98-0.16c-0.26-0.3-0.28-0.61-0.05-0.94c0.84-0.92,1.69-1.84,2.53-2.76c2.78-3.35,6-6.27,9.12-9.28
			c0.47-0.82,2.31-1.93-0.46-2.03c-1.74-0.07-3.48-0.26-5.22-0.27c-15.25-0.02-30.5,0-45.75-0.03c-3.35,0-6.49-0.64-8.81-3.39
			c-3.68-5.81-3.44-9.75,0.53-14.63c1.59-1.95,3.58-2.51,6.05-2.5c22.68,0.06,45.36,0.03,68.04,0.05c2.53,0,4.95-0.37,7.25-1.42
			c1.16-1.44,2.4-2.8,3.94-3.86c7.95-6.22,15.51-12.94,23.62-18.96c0.61-0.47,1.22-0.95,1.82-1.42c3.62-2.01,6.98-4.45,10.63-6.4
			c0.15-0.1,0.32-0.13,0.49-0.12c2.95-1.05,5.49-2.92,8.35-4.16C308.74,42.24,309.78,41.29,311.19,41.75z"/>
		<path class="st5" d="M519.98,588.69l-0.23,0l-0.22-0.03c-2.13,1.08-3.88,2.77-6.08,3.74c-8.52,3.75-16.65,2.79-24.49-1.94
			c-4.18-3.3-8.18-6.79-11.21-11.24c-3.51-6.23-6.41-12.71-6.06-20.04c0.67-14.12,7.03-24.86,19.55-31.73
			c0.95-0.52,1.96-0.96,2.91-1.49c8.21-2.71,16.04-2.68,22.92,3.39c1.85,1.63,3.14,1.64,4.21-0.7c1.21-2.65,3.55-3.94,6.21-4.11
			c3.56-0.22,7.16-0.41,10.72,0.18c3.44,2.02,4.85,5.06,4.84,8.99c-0.05,17.24-0.01,34.47-0.03,51.71
			c-0.01,6.01-3.04,9.02-9.05,9.08c-0.76,0.01-1.54-0.08-2.29,0.01C526.49,595.17,522.53,593.35,519.98,588.69z"/>
		<path class="st6" d="M179.54,521.8c0-0.22,0-0.43,0-0.65c0.55-0.5,1.19-0.43,1.85-0.33c5.22,0.77,9.36-1.49,11.4-6.22
			c2.26-5.25,2.09-6.26-2.68-9.42c-7.58-5.03-15.74-8.03-25.09-8.14c-9.05-0.11-17.69,1.03-25.54,5.57
			c-10.31,5.96-18.37,14.18-22.1,25.72c-2.56,7.93-3.36,16.14-1.66,24.53c0.83,4.08,1.51,8.13,3.41,11.87
			c6.89,13.55,17.22,23.11,31.97,27.55c0.73,0.22,1.47,0.53,2.22,0.53c7.94-0.04,15.91,1.02,23.79-0.86
			c4.18-0.99,8.09-2.55,11.72-4.88c1.11-0.71,2.16-2.03,3.79-1.06c0,0.21,0,0.43,0,0.64c-0.23,1.17-1.08,1.89-2.01,2.43
			c-4.41,2.59-8.94,4.92-14.1,5.66c-9.54,1.71-19.05,2.3-28.45-0.85c-0.41-0.14-0.84-0.18-1.28-0.1c-1.95-0.8-3.91-1.59-5.86-2.39
			c-0.91-0.46-1.82-0.92-2.72-1.4l0.02,0.01c-4.96-3.73-9.74-7.62-13.89-12.31c-5.51-6.21-8.66-13.44-10.64-21.37
			c-1.53-6.13-1.28-12.31-1.25-18.51c0.97-2.22,0.9-4.68,1.53-6.95c3.06-10.92,9.1-19.85,18.44-26.4c1.59-1.11,2.82-2.73,4.74-3.38
			c10.04-6.1,21.02-7.2,32.43-6.24c9.57,0.8,17.7,4.97,25.23,10.57c2.32,1.72,2.06,4.3,1.56,6.61c-1.09,5.1-4.63,8.58-8.68,11.43
			C185.17,525.22,182.35,524.42,179.54,521.8z"/>
		<path class="st7" d="M404.28,461.78c-0.69,1.02-1.38,2.03-2.07,3.05c-1.14,1.17-2.19,2.42-3.16,3.73
			c-4.33,5.88-8.54,6.87-15.27,3.54c-0.43-0.42-0.86-0.84-1.29-1.26c-1.43-2.53-1.93-5.22-1.93-8.14
			c0.06-24.08,0.04-48.15,0.03-72.23c0-5.02-0.49-5.12-5.29-5.64c-5.57-0.61-11.15-1.36-16.71-2.11
			c-6.94-0.94-13.58-2.94-20.29-4.68c-7.37-1.92-14.56-4.41-21.4-7.83c-0.59-0.29-1.13-0.67-1.29-1.38
			c1.08-1.44,2.37-0.74,3.51-0.22c14.03,6.34,28.9,9.76,43.95,12.39c4.47,0.78,9.06,1.11,13.6,1.66c4.29,0.52,5.96,2,6.63,6.28
			c0.25,1.62,0.2,3.26,0.2,4.9c0,23.13,0,46.26,0.01,69.39c0,4.83,0.84,6.44,3.81,7.42c3.68,1.22,6.74-0.11,9.42-3.32
			c4.25-5.11,8.03-10.62,12.74-15.34c2.4-2.41,3.93-5.52,6.47-7.79c1.12-1,2.01-2.35,3.73-2.43c0.64,0.4,0.58,0.89,0.21,1.43
			c-0.2,0.23-0.41,0.46-0.61,0.69C414.33,449.88,409.23,455.76,404.28,461.78z"/>
		<path class="st8" d="M315.73,368.58c3.01,1.97,6.24,3.47,9.59,4.79c8.92,3.49,18.23,5.72,27.5,7.86
			c4.22,0.97,8.62,2.02,13.15,1.81c3.99-0.19,7.83,1.48,11.87,1.58c2.49,0.06,3.42,2,3.42,4.35c0,4.47,0.01,8.94,0.01,13.4
			c0,18.85,0,37.7,0,56.56c0,4.01-0.32,8.05,1.23,11.9c-2.63-2.13-2.53-5.13-2.53-8.06c-0.02-23.36-0.01-46.71-0.01-70.07
			c0-0.87,0-1.75-0.01-2.62c-0.05-4.56-0.08-4.29-4.49-4.66c-11.4-0.96-22.67-2.79-33.75-5.75c-19.36-5.17-37.09-13.89-53.92-24.58
			c-0.35-0.22-0.59-0.62-0.88-0.94c1.64-1.04,2.85,0.2,4.08,0.89c2.04,1.14,3.86,2.68,6.12,3.45c4.17,1.83,8.27,3.82,12.22,6.1
			c1.1,0.79,2.28,1.43,3.58,1.84C314.01,366.93,315.32,367.17,315.73,368.58z"/>
		<path class="st9" d="M600.66,83.01c-1.76-2.64-4.36-3.32-7.36-3.32c-22.79,0.03-45.57-0.04-68.36,0.07
			c-3.68,0.02-6.55-1.08-8.95-3.79c-2.86-3.24-6.4-5.83-9-9.32c4.09,2.2,6.96,5.83,10.24,8.95c2.11,2,4.2,2.98,7.18,2.97
			c22.56-0.11,45.12,0.08,67.68-0.15c7.35-0.08,11.77,5.19,11.86,11.13c0.09,6.03-4.94,10.47-11.76,10.48
			c-15.8,0.01-31.61-0.02-47.41,0.03c-1.76,0.01-3.76-0.49-5.12,1.29c-0.19,0.01-0.39,0.03-0.58,0.04c-0.23-0.33-0.32-0.7-0.27-1.1
			c1.48-2.7,4.12-2.48,6.58-2.48c15.67-0.04,31.34-0.04,47.01,0c2.89,0.01,5.29-0.74,7.26-2.96c1.94-2.19,3.07-4.52,1.84-7.41
			C600.9,86,601.44,84.39,600.66,83.01z"/>
		<path class="st10" d="M656.95,572.36c-2.5-1.14-5.14-1.73-7.84-2.14c-5.56-0.85-10.73-2.82-15.67-5.48
			c-4.33-2.33-7.26-5.78-9.06-10.35c-2.08-5.27-2.14-10.74-1.26-16.13c1.02-6.24,4.76-10.81,10.74-13.04
			c13.38-4.98,26.55-4.01,39.39,2.03c2.86,1.35,3.79,3.74,3.15,6.8c-0.72,3.42-2.53,6.23-4.89,8.73c-2.25,2.38-4.81,2.23-7.46,0.84
			c-4.38-2.28-9.06-3.05-13.94-2.76c-1.19,0.07-2.38,0.29-3.55,0.53c-1.24,0.25-2.28,0.84-2.53,2.22c-0.24,1.35,0.47,2.31,1.44,3.1
			c2.03,1.65,4.49,2.18,7,2.47c5.58,0.64,10.87,2.3,16.06,4.34c0.59,0.23,1.1,0.67,1.65,1.01c-0.36,0.47-0.86,0.66-1.42,0.75
			c-4.43-0.18-8.15-2.9-12.48-3.54c-1.91-0.29-3.77-0.9-5.76-0.95c-2.51-0.06-4.6-1.23-6.32-3.01c-3-3.1-2.13-7.24,2.05-7.96
			c5.65-0.98,11.45-1.5,16.96,1.12c4.16,1.98,5.19,1.83,7.78-0.87c3.1-3.23,3.95-6.76,2.39-9.94c-1.92-2.42-4.96-2.58-7.54-3.51
			c-11.07-3.97-22.06-3.84-32.79,1.35c-3.94,2.4-6.34,5.94-7.61,10.32c-0.21,0.43-0.44,0.85-0.66,1.27c-0.45,3.23-0.43,6.45,0,9.68
			c0.23,0.42,0.45,0.84,0.67,1.27c0.51,1,0.84,2.05,0.95,3.17c-0.02,1.14,0.5,2.05,1.18,2.91c4.36,6.77,11.49,8.84,18.62,10.82
			c2.5,0.69,5.08,1.12,7.59,1.76C655.3,569.56,657.31,569.89,656.95,572.36z"/>
		<path class="st11" d="M277.12,587.92c-0.2,0.45-0.4,0.9-0.6,1.34c-1.09,1.83-2.95,2.8-4.57,4.05l0.03-0.03
			c-1.26,0.82-2.79,0.88-4.13,1.47c-1.34,0.1-2.58,0.69-3.91,0.86c-1.18,0.31-2.44,0.1-3.61,0.51c-2.71,0.51-5.42,0.85-8.18,0.67
			c-5.04,0.33-9.99-0.39-14.93-1.28c-1.61-0.29-3.18-0.62-4.1-2.19c3.03-1.39,6.05,0.02,8.8,0.65c9.2,2.11,17.97,0.09,26.76-1.93
			c3.04-0.7,5.83-2.52,6.37-5.89c0.59-3.7-1.18-6.81-3.9-9.24c-1.63-1.45-3.77-1.31-5.59-0.49c-6.25,2.82-12.83,2.09-19.32,1.91
			c-5.15-0.15-9.56-2.2-12.13-7.02c-1.85-3.47-0.45-6.26,3.43-7.01c1.61-0.31,3.26-0.19,4.89-0.19c8.06-0.01,16.14-0.29,24.18,0.09
			c5.93,0.28,8.95-3.03,11.46-7.5c0.53-0.94,0.69-2.07,1.5-2.87c0.55-0.31,1.08-0.31,1.58,0.11c-0.41,7.49-6.08,12.97-13.55,13
			c-9.47,0.04-18.94,0-28.41,0.04c-1.14,0-2.63-0.46-3.25,0.86c-0.62,1.32,0.32,2.49,1.09,3.55c1.98,2.75,5.16,3.46,8.03,4.69
			c6.28,0.81,12.45,0.8,18.55-1.38c7.55-2.7,12.97,0.92,13.79,9.05C277.53,585.11,277.79,586.58,277.12,587.92z"/>
		<path class="st12" d="M286.89,530.79c-0.11-0.17-0.1-0.32,0.04-0.47c0.36-0.22,0.68-0.17,0.96,0.15c1.19,2.72,0.47,5.59,0.59,8.38
			c0.19,4.35,1.8,6.1,6.08,6.3c5.12,0.24,6.89,2.01,7,7.39c0.13,6.75,0.09,13.51,0.03,20.26c-0.11,11.61,10.39,19.58,19.7,20.12
			c2.93,0.17,5.88,0.07,8.82,0.02c4.24-0.08,7.2-2.72,7.6-6.9c0.26-2.72,0.28-5.48-1.35-7.87c-1.7-2.48-4.14-3.25-7.1-3.12
			c-2.74,0.12-5.57,0-6.65-3.35c0.02-0.38,0.17-0.71,0.45-0.96c1.53,1.81,3.5,2.45,5.82,2.31c2.08-0.12,4.23-0.03,6.11,0.85
			c6.13,2.89,4.51,8.55,4.45,13.49c-0.05,3.89-2.75,7.08-6.52,7.48c-6.97,0.75-13.89,0.58-20.54-2.3
			c-8.63-3.73-12.42-10.68-12.95-19.54c-0.42-6.95-0.14-13.95-0.19-20.92c-0.04-4.86-0.05-4.86-4.83-4.84
			c-4.68,0.02-6.87-1.82-7.51-6.3C286.46,537.58,286.47,534.19,286.89,530.79z"/>
		<path class="st13" d="M501.77,346.22c-0.47,0.44-0.95,0.89-1.42,1.33c-7.16,3.41-11.12,10.09-15.91,15.85
			c-2.26,2.72-5.03,5.1-6.61,8.38c-1.49,1.29-2.31,3.1-3.57,4.57c-0.22,0.23-0.45,0.47-0.67,0.7c-6.07,6.72-11.63,13.86-17.47,20.78
			c-1.46,1.73-2.64,3.67-3.94,5.52c-0.48,0.36-0.87,0.98-1.62,0.56c-0.48-3.39,2.02-5.44,3.8-7.57
			c5.73-6.83,11.23-13.86,17.35-20.39c3.62-3.86,6.24-8.63,9.75-12.69c3.69-4.28,7.06-8.84,10.92-12.99
			c0.15-0.16,0.29-0.35,0.47-0.45c7.01-3.59,11.78-9.96,18-14.52c2.66-1.95,4.91-4.35,7.11-6.75c8.55-9.33,16.49-19.11,22.93-30.06
			c1.88-3.19,4.03-6.22,5.73-9.53c0.47-0.92,0.97-2.06,2.42-1.66c0.15,3.4-2.22,5.74-3.68,8.42c-3.81,6.97-8.54,13.35-13.17,19.79
			c-2.31,2.64-4.14,5.67-6.77,8.05c-3.42,3.47-6.28,7.46-9.98,10.67C510.88,338.21,506.31,342.21,501.77,346.22z"/>
		<path class="st1" d="M576.55,542.94c-0.34,0.62-1.05,1.21-0.16,1.93c0.37,1.59,1.89,2.57,2.23,4.19
			c-0.14,0.35-0.39,0.55-0.75,0.62c-2.9-1.21-3.91-3.16-3.6-6.75c0.24-2.83,1.89-4.63,4.53-4.74c6.26-0.26,12.61-1.32,18.6,1.87
			c3.07,1.64,4.43,1.05,6.16-1.93c0.66-1.13,1.26-2.3,1.65-3.55c0.69-2.17,0.17-3.88-2.01-4.87c-11.67-5.26-23.55-6.13-35.54-1.34
			c-5.76,2.31-8.32,7.01-8.66,13.11c-0.21,3.69,0.57,7.37-0.02,11.05c-0.44,0.46-0.96,0.51-1.53,0.32c-1.09-0.75-0.93-1.95-1.1-3.04
			c-0.35-3.68-0.57-7.4,0.06-11.03c1.41-8.06,6.82-12.39,14.34-14.22c10.22-2.48,20.39-2.4,30.34,1.48c0.4,0.18,0.82,0.28,1.23,0.44
			c6.94,2.75,7.83,5.24,4.26,11.92c-0.62,1.15-1.28,2.27-2.17,3.24c-2.5,2.71-3.93,3.26-7.15,1.46c-5.14-2.88-10.64-2.73-16.16-2.55
			C579.37,540.59,577.27,540.63,576.55,542.94z"/>
		<path class="st14" d="M281.15,553.93c-0.46-0.01-0.93-0.02-1.39-0.02c-0.23-0.42-0.08-0.81,0.09-1.2
			c0.64-1.25,0.38-2.41-0.31-3.55c-1.28-4.38-2.6-8.73-4.88-12.74c-1.67-2.94-3.85-5.18-6.8-6.83c-13.43-7.52-26.76-6.71-39.76,0.8
			c-6.59,3.8-11.38,9.43-13.57,16.94c-0.58,1.99-1.23,3.95-1.88,5.92c-0.29,0.88-0.36,2.02-1.7,2.09c-0.22-0.29-0.32-0.61-0.3-0.97
			c0.09-1.05-0.24-2.13,0.26-3.14c0.09-2.86,1.08-5.44,2.46-7.9c0.88-0.67,0.9-1.79,1.42-2.66c0.5-1.52,1.39-2.79,2.52-3.9
			c2.54-2.28,4.62-5.04,7.42-7.04c0.61-0.49,1.21-0.97,1.82-1.46c2.24-1.05,4.4-2.24,6.68-3.2c0.43-0.22,0.86-0.44,1.28-0.65
			c1.74-0.48,3.6-0.5,5.25-1.33l-0.01,0.01c6.34-0.81,12.68-0.91,19.01,0.04c13.34,3.19,21.54,12.54,22.73,25.99
			C281.64,550.72,281.88,552.37,281.15,553.93z"/>
		<path class="st8" d="M519.98,588.69c3.51,5.57,8.97,5.47,14.61,5.17c4.9-0.26,7.8-3.1,7.8-8.05c0.01-17.22-0.06-34.43,0.05-51.65
			c0.03-3.99-1.41-6.93-4.64-9.11c-2.83-0.67-5.71-0.12-8.55-0.33c-1.14-0.08-2.34,0.39-3.4-0.39c4.15-1.37,8.41-1.17,12.5-0.11
			c3.59,0.93,5.18,4.13,5.21,7.55c0.14,18.41,0.14,36.82,0.02,55.22c-0.03,4.57-3.02,7.55-7.56,7.94c-2.81,0.24-5.67,0.18-8.48-0.05
			C523.67,594.59,521.12,592.44,519.98,588.69z"/>
		<path class="st15" d="M258.74,77.65c-1.77,2.01-4.17,2.04-6.55,2.04c-22.63,0.01-45.26,0.01-67.9,0.01
			c-7.61,0-11.69,6.7-8.37,13.73c0.41,0.87,1.07,1.66,0.96,2.72c-3.38-3.38-4.07-7.26-2.12-11.62c1.88-4.21,5.05-6.33,9.75-6.32
			c21.38,0.05,42.76,0,64.13,0.03C252.02,78.26,255.38,78.1,258.74,77.65z"/>
		<path class="st16" d="M179.54,521.8c3.07,1.61,6.11,3.05,9.3,0.19c4.34-3.9,8.39-8.15,6.81-14.51c-0.71-2.84-4.23-3.9-6.66-5.42
			c-8.76-5.49-18.41-6.83-28.69-6.73c-8.51,0.08-15.9,2.83-23.32,6.19c-0.37-0.24-0.39-0.51-0.06-0.8
			c14.98-8.84,30.48-9.42,46.4-2.88c3.95,1.62,7.58,3.86,10.97,6.46c2.95,2.27,3.76,4.83,2.64,8.36c-1.52,4.79-4.71,8.38-8.75,11.09
			c-3.74,2.52-7.03,0.44-10.09-1.86C178.57,521.86,179.05,521.83,179.54,521.8z"/>
		<path class="st17" d="M540.4,102.13c10.5,8.37,18.26,18.91,24.23,30.81c8.54,17.02,11.01,35.19,9.73,54
			c-0.04,0.52-0.31,1.03-0.47,1.54c-0.35,0.22-0.67,0.18-0.96-0.11c-0.81-1.16-0.62-2.5-0.63-3.79c-0.03-4.03-0.09-8.06,0.01-12.09
			c0.19-7.37-1.75-14.38-3.37-21.45c-1.39-6.06-3.35-11.88-6.12-17.48c-2.72-5.5-6.21-10.46-9.76-15.4
			c-0.23-0.24-0.43-0.51-0.61-0.78c-2.7-4.63-6.89-7.93-10.48-11.78C541.09,104.65,539.59,103.88,540.4,102.13z"/>
		<path class="st18" d="M578.41,549.31c0-0.22,0-0.44,0-0.65c9.74,1.08,19.26,2.9,27.66,8.4c6.26,6.23,7.34,13.96,5.52,22.02
			c-1.99,8.78-8.52,13.32-16.87,15.4c-13.86,3.45-26.92,1.22-39.23-5.86c-0.22-0.23-0.43-0.45-0.65-0.68
			c-2.44-4.4-0.98-9.74,3.46-12.6c0.39-0.01,0.65,0.18,0.77,0.55c0.21,1.5-0.95,2.35-1.64,3.42c-2.65,4.1-2.07,6.52,2.15,8.73
			c11.64,6.09,23.74,7.46,36.38,3.62c13.62-4.14,18.85-19.77,10.11-31.01c-2.96-3.81-7.76-5.12-12.12-6.76
			c-2.84-1.07-5.86-1.57-8.94-1.82C582.59,551.86,579.89,551.92,578.41,549.31z"/>
		<path class="st19" d="M231.81,294.59c-7.77-12.92-13.46-26.72-17.4-41.26c-1.93-7.12-3.86-14.24-4.8-21.58
			c-0.81-5.5-1.03-11.03-1.08-16.57c0.42-0.76,0.94-0.85,1.44-0.1c0.65,0.96,0.54,2.08,0.57,3.16c0.23,8.17,0.93,16.35,3.33,24.14
			c2.88,9.34,4.52,19.05,8.61,28.03c3.02,6.63,5.87,13.34,9.23,19.81c0.68,1.31,1.73,2.6,1.06,4.27
			C232.48,294.79,232.16,294.82,231.81,294.59z"/>
		<path class="st20" d="M176.92,593.86c6.05-0.65,11.03-3.62,15.71-7.23c3.98-1.84,6.41-4.98,6.47-9.31
			c0.18-11.41,0.11-22.83,0.04-34.25c-0.03-4.87-3.21-7.24-9.49-7.46c-4.22-0.15-8.46,0.42-12.66-0.32
			c5.64-0.48,11.31-0.74,16.91,0.2c4.28,0.72,6.29,2.73,6.38,7.04c0.22,11.77,0.16,23.54,0.11,35.32c-0.01,2.63-1.41,4.8-3.21,6.62
			c-4.93,4.96-10.72,8.47-17.58,10.08c-0.82,0.44-1.68,0.25-2.54,0.19C176.75,594.5,176.7,594.2,176.92,593.86z"/>
		<path class="st21" d="M555.48,588.61c5.14,1.36,9.65,4.5,14.91,5.47c11.08,2.06,22.16,2.55,32.18-3.62
			c5.78-3.56,9.01-9,9.34-16.23c0.3-6.68-2.16-12.02-6.08-17.01c0.24-0.37,0.51-0.4,0.82-0.09c2.27,1.41,3.34,3.74,4.21,6.04
			c4.48,11.92,1.76,27.1-14.34,31.44c-13.68,3.69-26.92,2.57-39.41-4.57C556.47,589.7,555.66,589.51,555.48,588.61z"/>
		<path class="st22" d="M437.53,30c-9.16-1.73-18.26-4.21-27.5-4.97c-9.5-0.78-19.06-2.92-28.6-1.48c-9.2,1.39-18.59,1.41-27.65,3.8
			c-1.4,0.4-2.8,0.6-4.17-0.12c7.77-2.15,15.76-2.86,23.71-3.92c12.33-1.65,24.59-0.86,36.82,0.57c9.27,1.08,18.5,2.57,27.43,5.44
			c0.16,0.17,0.2,0.32,0.13,0.47C437.65,29.93,437.59,30,437.53,30z"/>
		<path class="st16" d="M287.6,530.32c-0.22,0-0.45,0-0.67,0c0.76-4.97,3.08-7.02,8.3-6.47c3.28,0.35,4.02-0.98,4-3.76
			c-0.04-4.47-0.05-8.95,0.05-13.42c0.1-4.29,1.76-6.34,5.94-7.43c3.33-0.87,6.73-0.84,10.05-0.11c4.73,1.03,7.01,3.92,7.09,8.84
			c0.09,5.02,0.04,10.04,0.05,15.05c-0.17,0.06-0.34,0.13-0.52,0.19c-1.67-0.82-1.73-2.4-1.76-3.93c-0.08-3.27-0.02-6.55-0.03-9.82
			c-0.02-4.83-2.81-8.2-7.63-8.92c-2.73-0.41-5.43-0.16-7.94,1.2c-1.87,1.02-2.97,2.4-2.95,4.67c0.04,4.36,0.11,8.73-0.03,13.09
			c-0.12,3.7-1.42,5.8-4.7,6.01C292.89,525.77,289.86,527.13,287.6,530.32z"/>
		<path class="st21" d="M668.75,554.58c0.47-0.02,0.94-0.03,1.4-0.05c6.07,2.45,8.36,7.66,9.48,13.51c0.76,3.97,0.63,8.03-0.5,11.98
			c-1.91,6.7-5.67,11.59-12.64,13.77c-10.56,3.31-21.1,3.99-31.77,0.71c-0.42-0.46-1.34-0.24-1.47-1.09
			c0.13-0.33,0.36-0.55,0.7-0.67c2.14-0.31,3.94,0.94,5.95,1.25c5.81,0.51,11.63,0.25,17.43,0.13c0.32-0.13,0.65-0.24,0.98-0.33
			c2.63-0.67,5.27-1.26,7.9-2c4.67-1.31,7.63-4.22,9.59-8.57c2.9-6.46,3.67-12.89,0.72-19.55c-1.18-2.65-2.7-4.91-5.23-6.48
			C670.28,556.58,668.74,556.28,668.75,554.58z"/>
		<path class="st7" d="M557.55,552.57c0.4,0.01,0.81,0.01,1.21,0.02c0.55,0.17,0.98,0.52,1.22,1.02
			c3.98,8.45,11.91,10.93,19.98,13.15c1.98,0.54,4.07,0.76,6.08,1.25c1.62,0.39,3.08,1.07,4.31,2.22c1.56,1.45,2.95,2.97,2.44,5.35
			c-0.53,2.45-2.3,3.73-4.53,4.18c-6.27,1.28-12.35,0.89-17.98-2.54c-1.12-0.68-2.19-1.42-3.31-2.1c-2.12-1.3-4.22-1.72-6.36-0.02
			c-0.51,0.4-1.12,0.69-1.82,0.43l-0.06-0.03c0.08-2.84,2.44-4.62,5.41-4.01c1.17,0.24,2.29,0.66,3.29,1.33
			c0.17-0.02,0.33,0.02,0.48,0.12c5.3,3.06,10.72,5.6,17.14,4.91c4.09-0.44,5.54-1.45,5.44-4.41c-0.01-0.2-0.17-0.37-0.34-0.52
			c-0.21-0.22-0.41-0.44-0.62-0.66c-3.32-2.7-7.59-2.17-11.35-3.34c-8.33-2.61-16.57-5.4-20.5-14.33
			C557.39,553.95,556.72,553.3,557.55,552.57z"/>
		<path class="st12" d="M601.29,526.46c-7.16-2.62-14.58-3.05-22.11-2.72c-5.3,0.23-10.23,1.63-14.88,4.16
			c-5.41,2.94-7.06,7.97-7.48,13.59c-0.21,2.81-0.03,5.65-0.03,8.48c-0.23,0.37-0.47,0.38-0.73,0.03
			c-2.63-13.36,2-22.63,13.77-25.88c10.62-2.93,21.22-2.99,31.56,1.46C601.64,525.91,601.6,526.2,601.29,526.46z"/>
		<path class="st10" d="M531.86,315.45c4.04-6.12,8.1-12.22,12.11-18.35c2.01-3.07,3.89-6.22,4.93-9.78
			c-0.98-2.1,0.88-3.43,1.38-5.13c0.51-0.9,0.95-1.83,1.29-2.81c0.22-0.55,0.51-1.06,0.83-1.55c0.85-1.21,1.37-2.59,1.88-3.96
			c0.13-0.29,0.3-0.55,0.49-0.8c2.36-3.29,3.24-7.23,4.83-10.85c0.41-0.93,0.11-2.56,1.93-2.37c0.18,0.49,0.16,0.97-0.08,1.44
			c-2.96,10.86-8.08,20.79-13.27,30.68c-4.25,8.09-9.44,15.59-14.87,22.92c-0.38,0.51-0.92,0.9-1.39,1.34
			c-0.22-0.15-0.3-0.32-0.24-0.49C531.74,315.54,531.8,315.45,531.86,315.45z"/>
		<path class="st23" d="M493.96,526.42c-4.02,2.53-8.04,4.93-11.51,8.36c-9.45,9.33-13.57,26.28-6.62,39.33
			c0.91,1.71,1.6,3.55,2.38,5.33c-0.23,0.37-0.49,0.39-0.77,0.06c-13.97-20.18-3.38-45.15,14.95-53.18
			C492.93,526.07,493.47,525.97,493.96,526.42z"/>
		<path class="st24" d="M210.91,554.52c0.04,0.24,0.07,0.48,0.11,0.73c0.98,0.96,0.78,2.22,0.81,3.39
			c0.2,11.41,4.49,20.94,13.04,28.54c1.65,1.46,3.51,2.58,5.44,3.61c1.13,0.6,2.47,0.99,2.95,2.41c3.92,3.03,8.78,2.29,13.21,3.23
			c1.86,0.39,3.87,0.11,5.81,0.13c0.19,0.14,0.25,0.28,0.18,0.41c-0.07,0.13-0.14,0.19-0.21,0.19c-11.01,0.55-21.3-1.34-29.82-8.97
			c-7.41-6.64-11.21-15.1-12.19-24.91c-0.37-2.53-0.37-5.07,0-7.6c0.03-0.37,0.07-0.74,0.1-1.11
			C210.51,554.27,210.7,554.26,210.91,554.52z"/>
		<path class="st25" d="M208.98,214.66c0.21,5.7,0.42,11.39,0.63,17.09c-1.46-5.62-1.48-11.42-1.74-17.13
			c-0.37-7.89-2.46-15.44-3.65-23.16c-1.79-11.56-2.01-23.11,0.79-34.58c1.56,1.65,0.93,3.65,0.77,5.52
			c-0.09,1.06-0.47,2.1-0.41,3.19c-0.04,3.91,0.18,7.84-0.06,11.73c-0.38,6.03,0.93,11.86,1.75,17.74c0.41,1.6-0.01,3.29,0.58,4.87
			c0.24,0.85,0.47,1.71,0.73,2.56c0.52,2.25-0.11,4.61,0.63,6.84C209.27,211.11,209.41,212.89,208.98,214.66z"/>
		<path class="st22" d="M450.69,403.92c0.41-0.25,0.82-0.5,1.23-0.74c0.38,0.22,0.41,0.49,0.1,0.79
			c-5.88,8.23-12.84,15.58-19.01,23.57c-3.65,4.73-7.43,9.36-11.18,14.01c-0.53,0.65-0.97,1.47-1.93,1.64c0-0.43,0-0.85,0.01-1.28
			c-0.42-1.52,0.65-2.47,1.45-3.41c5.56-6.53,10.39-13.64,15.86-20.24c3.45-4.16,7.37-7.94,10.64-12.27
			C448.56,405.07,449.4,404.13,450.69,403.92z"/>
		<path class="st23" d="M349.62,27.22c1.39,0.04,2.78,0.08,4.17,0.12c-2.49,1.1-5.24,0.89-7.83,1.73
			c-11.75,3.79-23.75,6.88-34.77,12.68c-4.05,1.56-7.46,4.6-11.94,5.14c5.21-4.05,11.36-6.34,17.26-9.05
			c10.1-4.65,20.71-7.86,31.5-10.51C348.52,27.19,349.08,27.25,349.62,27.22z"/>
		<path class="st26" d="M437.53,30c0.02-0.23,0.04-0.46,0.06-0.69c7.45,1.61,14.5,4.39,21.51,7.3
			c11.66,4.84,22.88,10.52,33.01,18.15c-0.24,0.35-0.53,0.39-0.86,0.12c-7.79-5.38-16.18-9.72-24.71-13.75
			c-7.43-3.51-15.21-6.14-23.03-8.67C441.45,31.79,439.51,30.83,437.53,30z"/>
		<path class="st27" d="M601.29,526.46c0.03-0.29,0.07-0.58,0.1-0.87c2.01,0.22,3.66,1.33,5.37,2.27c0.47,0.25,0.89,0.64,1.24,1.04
			c2.27,2.54,1.63,6.36-1.92,11.67c-2.57,3.84-4.72,5-8.05,3.51c-4.97-2.22-10.01-3.63-15.48-3.23c-2.19,0.16-4.35,0.4-6,2.08
			c0.01-2.48,1.91-2.75,3.62-2.75c6.23-0.01,12.63-1.03,18.34,2.74c1.5,0.99,3.02,0.57,4.43-0.7c2.44-2.2,3.77-5.07,4.77-8.03
			c0.91-2.69-0.23-4.86-2.94-6.07C603.6,527.6,602.2,527.53,601.29,526.46z"/>
		<path class="st8" d="M112.82,537.68c-0.5,10.66,0.83,20.89,5.71,30.64c3.83,7.66,10,13,16.25,18.37c1.22,1.04,2.83,1.65,3.45,3.31
			c-12.86-7.51-21.38-18.35-24.87-32.9c-1.66-6.94-2.19-13.98-0.7-21.05C113.15,536.55,113.08,537.11,112.82,537.68z"/>
		<path class="st28" d="M639.29,594.52c-1.94-0.46-3.89-0.92-5.83-1.38c-1.67-0.02-3.18-0.63-4.7-1.21
			c-1.28-0.69-2.56-1.39-3.84-2.08c-1.08-1.29-2.71-1.98-3.66-3.41c-0.14-0.31-0.23-0.62-0.25-0.96c-0.19-5.35,2.93-9.22,6.06-12.95
			c1.69-2.01,6.17-1.06,9.14,1.48c0.1,0.36,0.04,0.68-0.18,0.98c-1.39,0.69-2.53-0.2-3.72-0.64c-1.89-0.7-3.42-0.36-4.55,1.39
			c-1,1.56-2.11,3.06-2.98,4.7c-1.75,3.33-1.44,5.33,1.81,7.17c5.16,2.9,10.65,5.08,16.67,5.33c3.71,0.15,7.42,0.01,11.13,0.04
			c1.3,0.01,2.64-0.15,3.82,0.63c0.29,0.28,0.32,0.58,0.1,0.91l0,0C651.98,595.03,645.63,595.02,639.29,594.52z"/>
		<path class="st12" d="M636.04,574.22c-1.2-0.97-2.58-1.61-4.07-1.89c-2.47-0.45-4.6-0.2-6,2.45c-1.91,3.59-4.78,6.76-4.36,11.24
			c-1.23,0.35-0.69-1.08-1.33-1.32c0.11-5.26,3.18-9.09,6.43-12.72c1.32-1.48,3.39-1.24,5.24-0.81c2.24,0.53,4.24,1.6,6.21,2.77
			c4.91,2.91,10.14,4.42,15.88,3.3c2.32-0.45,4.25-1.31,3.52-4.3c0.33-0.24,0.66-0.23,0.98,0.03c0.23,0.3,0.37,0.63,0.45,1
			c0.2,3.02-1.65,4.59-4.23,4.83c-5.09,0.47-10.24,0.78-15.09-1.51C638.18,576.59,636.69,575.9,636.04,574.22z"/>
		<path class="st22" d="M337.48,524.39c3.3,0.4,4.96,2.61,5.54,5.56c0.74,3.75,0.79,7.58-0.12,11.32c-1.01,4.12-3.09,5.76-7.77,6
			c-3.14,0.16-6.29-0.07-9.44-0.12c-1.18-0.02-2.43-0.27-3.26,0.92c-0.11-0.15-0.22-0.3-0.33-0.44c0.37-2.41,2.4-2.24,4.02-2.41
			c2.38-0.25,4.8-0.08,7.2-0.09c5.72-0.02,6.36-0.49,7.9-6.07c0.83-3.01,0.83-6.04-0.22-9c-0.93-2.63-2.78-4.07-5.67-4.08
			c-2.73-0.01-5.46,0.15-8.18-0.11c-0.83-0.08-2.69,0.34-1.82-1.75C329.38,524.26,333.44,523.76,337.48,524.39z"/>
		<path class="st29" d="M204.42,165.51c0.24-2.87,1.1-5.7,0.59-8.63c1.98-11.3,6.12-21.76,12.36-31.39
			c0.55-0.23,0.93-1.24,1.71-0.36c-0.32,3.49-2.5,6.16-4.12,9.04c-4.68,8.27-6.75,17.33-8.35,26.55
			C206.29,162.5,206.96,164.74,204.42,165.51z"/>
		<path class="st16" d="M493.96,526.42c-0.52-0.04-1.04-0.07-1.56-0.11c7.89-4.36,18.04-3.55,24.68,2.11
			c1.73,1.47,2.92,2.43,4.02-0.6c0.74-2.02,2.52-3.19,4.74-3.47c3.97,0.52,8.04-0.72,11.95,0.71c-2.93,0-5.86,0.02-8.78,0
			c-3.15-0.02-5.71,1.01-7.28,3.92c-1.38,2.55-3.29,2.67-5.25,0.83C509.72,523.45,501.96,524.25,493.96,526.42z"/>
		<path class="st16" d="M284.25,352.34c-4.66-2.79-8.74-6.33-12.8-9.89c-6.34-5.57-12.88-10.95-18.01-17.75
			c0.23-0.23,0.51-0.36,0.83-0.4c0.82,0.04,1.44,0.48,1.98,1.02c5.21,5.2,10.47,10.34,16.23,14.97c3.36,2.7,6.02,6.23,9.76,8.55
			c1,0.62,1.89,1.47,2.32,2.65C284.59,351.82,284.48,352.1,284.25,352.34z"/>
		<path class="st24" d="M556.07,550c0.24-0.01,0.49-0.02,0.73-0.03c-0.05,0.95,0.21,1.82,0.75,2.6c1.06,4.64,3.99,7.91,7.94,10.23
			c6.02,3.53,12.39,6.2,19.46,6.89c1.79,0.17,3.72,0.55,4.58,2.58c-3.53-1.5-7.35-1.78-11.02-2.69
			c-7.15-1.77-13.94-4.35-18.73-10.35C557.65,556.57,556.31,553.48,556.07,550z"/>
		<path class="st30" d="M112.82,537.68c-0.06-0.54-0.11-1.09-0.17-1.63c2.12-15.87,10.76-27.27,24.26-35.33
			c0.02,0.27,0.04,0.53,0.06,0.8c-4.47,3.44-9.05,6.75-12.74,11.07c-5.31,6.22-9.19,13.13-10.18,21.41
			C113.89,535.32,113.49,536.55,112.82,537.68z"/>
		<path class="st17" d="M254.23,324.66c-0.26,0.01-0.52,0.03-0.78,0.04c-8.3-9.25-15.85-19.05-21.64-30.11
			c0.26-0.02,0.53-0.03,0.79-0.05c3.59,1.88,4.06,6.06,6.5,8.8c4.27,4.8,7.62,10.31,11.72,15.25
			C252.31,320.37,254.25,321.99,254.23,324.66z"/>
		<path class="st31" d="M561.46,261.28c-0.03-0.49-0.07-0.98-0.1-1.47c-0.98-1.1-0.42-2.27-0.12-3.39c2.19-8.26,4.21-16.57,5.59-25
			c0.54-3.3,0.26-6.73,1.84-9.83c0.22-0.32,0.52-0.52,0.9-0.58c0.16,0.1,0.31,0.2,0.47,0.3c-1.04,13.17-4.13,25.92-7.9,38.53
			C561.99,260.34,561.69,260.8,561.46,261.28z"/>
		<path class="st32" d="M452.02,403.97c-0.03-0.26-0.06-0.53-0.09-0.79c1.83-4.13,4.96-7.36,7.84-10.67
			c4.53-5.21,8.24-11.17,13.82-15.45c-1.38,3.42-4.34,5.63-6.52,8.42C462.17,391.74,457.05,397.82,452.02,403.97z"/>
		<path class="st33" d="M477.48,371.74c2.08-4.5,5.91-7.69,8.83-11.56c1.23-1.63,2.86-2.98,3.95-4.76c2.38-3.89,5.98-6.21,10.1-7.86
			c-9.45,6.62-15.17,16.66-22.8,24.95c-0.2-0.15-0.28-0.32-0.24-0.5C477.36,371.83,477.42,371.74,477.48,371.74z"/>
		<path class="st30" d="M488.8,589.86c9.52,5.54,18.96,5.98,28.33-0.38c0.69-0.47,1.45-0.99,2.4-0.82
			c-8.11,8.27-21.91,8.84-31.66,1.32C488.14,589.63,488.45,589.58,488.8,589.86z"/>
		<path class="st33" d="M501.77,346.22c3.91-5.15,9.35-8.64,13.99-13c2.68-2.51,5.43-5,7.22-8.32c0.47-0.88,1.23-1.52,2.31-1.61
			c0.28-0.24,0.54-0.23,0.77,0.07c-6.5,8.58-14.87,15.25-22.83,22.34C502.82,346.08,502.37,346.39,501.77,346.22z"/>
		<path class="st27" d="M606.65,557.15c-0.27,0.03-0.54,0.06-0.82,0.09c-1.87-0.86-3.77-1.67-5.61-2.6
			c-5.29-2.69-10.87-4.23-16.79-4.71c-1.7-0.14-3.35-0.83-5.02-1.27c-1.6-0.77-2.16-2.09-2.02-3.79c2.3,3.18,5.71,3.97,9.32,4.42
			c6.4,0.79,12.49,2.6,18.17,5.69C604.9,555.54,606.06,556.01,606.65,557.15z"/>
		<path class="st13" d="M658.32,572.88c-0.25,0.02-0.51,0.04-0.76,0.06c-0.2-0.19-0.41-0.39-0.61-0.58
			c-0.85-2.24-2.91-2.34-4.8-2.73c-7.67-1.57-15.27-3.32-21.64-8.3c-1.65-1.29-2.94-2.81-3.7-4.77c0.29-0.23,0.6-0.29,0.95-0.19
			c6.97,7.39,16.23,9.76,25.68,11.74C657.16,568.89,658.29,570.11,658.32,572.88z"/>
		<path class="st34" d="M277.12,587.92c0.4-4.1-0.78-7.72-3.2-11.01c-1.98-2.69-4.82-3.89-7.92-2.56
			c-6.01,2.57-12.26,2.69-18.59,2.48c-0.85-0.03-1.78,0.17-2.35-0.75c7.13,0.5,14.11,0.17,20.88-2.59c3.7-1.5,6.54-0.38,8.74,3.02
			C276.91,579.96,279.13,583.52,277.12,587.92z"/>
		<path class="st31" d="M573.12,188.36c0.26,0.04,0.51,0.07,0.77,0.11c0.04,3.18-0.68,6.24-1.45,9.29
			c-1.67,6.58-1.8,13.31-1.95,20.04c-0.03,1.18,0.26,2.41-0.44,3.5c-0.1-0.08-0.19-0.17-0.28-0.25c-1.09-1.32-0.77-2.9-0.76-4.4
			c0.03-4.03-0.22-8.06,0.15-12.08c0.56-1.08,0.11-2.36,0.67-3.44c0.81-1.32,0.43-2.81,0.57-4.23c0.05-0.84,0.28-1.62,0.7-2.35
			c0.9-1.34,0.43-2.88,0.62-4.32C571.89,189.4,571.91,188.43,573.12,188.36z"/>
		<path class="st15" d="M286.3,54.83c-4.14,4.62-9.31,8.05-14.14,11.83c-3.1,2.42-5.35,6.08-9.48,7.13
			C270.13,66.95,277.58,60.1,286.3,54.83z"/>
		<path class="st19" d="M323.06,570.74c-0.04,0.3-0.08,0.61-0.12,0.91c-2.53-0.3-2.64-2.43-2.73-4.14
			c-0.28-5.41-0.18-10.84-0.05-16.26c0.03-1.41,0.24-2.87,2-3.32c0,0,0.27,0.16,0.27,0.16c-0.01,5.52,0.02,11.04-0.05,16.56
			C322.35,566.72,322.59,568.73,323.06,570.74z"/>
		<path class="st11" d="M567.43,572.82c-6.07-1.28-6.95-1.01-8.71,2.68c-4.46,3.16-5.4,7.41-3.89,12.44
			c-2.3-1.2-2.19-3.32-1.77-5.31c0.86-4.05,3.22-7.36,5.99-10.3C561.14,570.1,564.86,570.48,567.43,572.82z"/>
		<path class="st35" d="M176.91,594.49c0.9,0.02,1.79,0.05,2.69,0.07c-10.53,2.98-21.05,3.54-31.58,0c0.52-0.55,1.17-0.54,1.82-0.37
			C158.84,596.44,167.87,595.84,176.91,594.49z"/>
		<path class="st36" d="M590.15,572.92c1.74,2.2,0.6,3.77-1.43,4.48c-5.5,1.92-15.87,0.9-20.81-4.47c2.42-0.33,4,1.49,5.9,2.41
			c4.3,2.08,8.69,2.57,13.34,1.65C589.47,576.53,590.66,575.4,590.15,572.92z"/>
		<path class="st37" d="M383.79,472.1c1.04,0.27,2.09,0.51,3.12,0.8c4.4,1.25,8.46-0.2,11.22-3.8c1.19-1.55,1.72-3.81,4.08-4.27
			c-2.41,3.92-4.61,8.08-9.56,9.34C389.4,475,386.27,474.81,383.79,472.1z"/>
		<path class="st22" d="M404.28,461.78c0.25-2.12,1.89-3.45,3.22-4.73c4.26-4.11,6.92-9.64,11.79-13.18
			c-1.92,3.64-4.71,6.66-7.45,9.64C409.31,456.26,407.78,459.93,404.28,461.78z"/>
		<path class="st23" d="M176.91,594.49c-2.23,0.91-4.53,1.32-6.95,1.31c-7.33-0.04-14.69,0.41-21.93-1.23
			c-0.41-0.26-0.82-0.52-1.23-0.78c0.84-0.91,1.76-0.49,2.71-0.22c9.11,2.6,18.26,2.08,27.42,0.3
			C176.92,594.07,176.91,594.28,176.91,594.49z"/>
		<path class="st38" d="M540.4,102.13c1.88,3.62,5.34,5.82,7.98,8.75c1.72,1.91,3.54,3.71,4.49,6.16c-1.17,0.39-1.88-0.41-2.44-1.15
			c-2.83-3.71-6.45-6.67-9.57-10.1c-1.11-1.22-2.66-2.36-1.77-4.43c0.2,0,0.39-0.01,0.59-0.01
			C539.91,101.61,540.15,101.87,540.4,102.13z"/>
		<path class="st39" d="M258.77,523.13c-6.34-0.01-12.67-0.03-19.01-0.04C246.1,521.34,252.44,521.33,258.77,523.13z"/>
		<path class="st40" d="M506.48,66.53c-3.38-0.9-4.85-4.3-7.71-5.91c-1.09-0.62-1.95-1.65-2.91-2.49c-0.19-0.16-0.25-0.32-0.18-0.47
			c0.07-0.15,0.14-0.22,0.21-0.22C499.7,60.13,503.86,62.44,506.48,66.53z"/>
		<path class="st41" d="M284.25,352.34c0.02-0.27,0.04-0.53,0.05-0.8c1.37-0.59,2.43,0.42,3.63,0.71c2.47,1.38,5.04,2.59,7.3,4.3
			c0.87,0.66,2.3,1.11,1.62,2.74c-3.65-1.07-6.1-4.45-9.94-5.13C286.02,353.55,285.14,352.95,284.25,352.34z"/>
		<path class="st42" d="M488.8,589.86c-0.31,0.04-0.62,0.08-0.93,0.13c-4.24-2.74-7.74-6.21-10.43-10.49
			c0.26-0.02,0.51-0.04,0.77-0.06C481.39,583.27,485,586.66,488.8,589.86z"/>
		<path class="st40" d="M218.82,124.89c-0.49,0.2-0.97,0.4-1.46,0.6c2.12-4.26,4.67-8.22,8.09-11.58c0.04,0.19,0.07,0.39,0.09,0.58
			C224.22,118.55,221.95,122,218.82,124.89z"/>
		<path class="st43" d="M237.11,101.86c-2.54,3.58-5.79,6.48-9.12,9.28C230.33,107.37,233.56,104.46,237.11,101.86z"/>
		<path class="st15" d="M298.75,47.01c-3.29,2.55-6.63,5.02-10.63,6.4C291.4,50.84,294.71,48.32,298.75,47.01z"/>
		<path class="st16" d="M337.48,524.39c-4.22,0.05-8.43,0.1-12.65,0.16c-1.47,0.73-2.64,0.87-2.68-1.31
			c0.09-0.07,0.18-0.13,0.27-0.2c1.07,1.36,2.56,0.78,3.91,0.81C330.05,523.94,333.82,523,337.48,524.39z"/>
		<path class="st39" d="M224.74,529.72c-2.28,2.55-4.39,5.28-7.42,7.04C219.3,533.89,221.49,531.25,224.74,529.72z"/>
		<path class="st20" d="M526.06,323.37c-0.26-0.02-0.51-0.05-0.77-0.07c2.19-2.62,4.38-5.23,6.57-7.85
			c0.02,0.26,0.04,0.51,0.06,0.77C530.31,318.88,528.46,321.35,526.06,323.37z"/>
		<path class="st25" d="M252.24,597.15c0-0.2,0.01-0.41,0.03-0.61c2.87,0.31,5.61-0.76,8.45-0.77c0.86-0.5,1.81-0.18,2.71-0.26
			c0.33,0,0.57,0.15,0.72,0.45C260.22,596.75,256.27,597.41,252.24,597.15z"/>
		<path class="st16" d="M286.89,530.79c0,3.39,0,6.78,0,10.18C285.89,537.58,286.05,534.19,286.89,530.79z"/>
		<path class="st39" d="M233.24,525.06c-2,1.53-4.13,2.8-6.68,3.2C228.52,526.65,230.65,525.38,233.24,525.06z"/>
		<path class="st21" d="M495.89,57.43c-0.01,0.23-0.02,0.46-0.03,0.69c-1.63-0.96-3.57-1.46-4.62-3.24
			c0.29-0.04,0.57-0.08,0.86-0.12C493.41,55.58,494.9,56.14,495.89,57.43z"/>
		<path class="st34" d="M271.95,593.32c1.16-1.76,3.01-2.74,4.57-4.05C275.85,591.59,274.1,592.68,271.95,593.32z"/>
		<path class="st32" d="M477.48,371.74c0.02,0.26,0.05,0.51,0.07,0.77c-1.1,1.29-1.48,3.18-3.3,3.85
			C474.84,374.48,475.9,372.92,477.48,371.74z"/>
		<path class="st39" d="M210.23,555.67c0,2.53,0,5.06,0,7.6C209.51,560.74,209.5,558.2,210.23,555.67z"/>
		<path class="st35" d="M620.27,584.7c0.44,0.44,0.89,0.88,1.33,1.32c0.02,0.19,0.06,0.37,0.11,0.56c0.63,0.93,2.31,1.19,1.81,2.84
			C621.47,588.51,620.23,587.05,620.27,584.7z"/>
		<path class="st21" d="M623.53,589.41c-0.6-0.95-1.21-1.89-1.81-2.84c1.68,0.5,2.83,1.51,3.21,3.28
			C624.37,590.01,623.86,589.98,623.53,589.41z"/>
		<path class="st21" d="M628.77,591.93c1.72-0.19,3.27,0.25,4.69,1.21c0,0-0.09,0.13-0.09,0.13c-0.67,0.4-1.35,0.28-2.03,0.01
			C630.21,593.34,629.22,593.14,628.77,591.93z"/>
		<path class="st25" d="M264.04,595.2c1.29-0.25,2.59-0.5,3.88-0.75c0.5-0.29,0.99-0.31,1.44,0.11c-1.63,0.87-3.39,1.23-5.21,1.41
			c0,0-0.19-0.21-0.19-0.21c-0.17-0.15-0.21-0.28-0.13-0.4C263.9,595.25,263.97,595.2,264.04,595.2z"/>
		<path class="st39" d="M239.78,523.08c-1.53,1.31-3.35,1.47-5.25,1.33C236.13,523.42,237.91,523.05,239.78,523.08z"/>
		<path class="st34" d="M269.35,594.55c-0.48-0.04-0.96-0.07-1.43-0.11c1.25-0.77,2.66-0.94,4.06-1.15
			C271.37,594.26,270.4,594.49,269.35,594.55z"/>
		<path class="st8" d="M138.21,589.99c1.17-0.05,2.11,0.36,2.72,1.4C139.62,591.7,138.92,590.83,138.21,589.99z"/>
		<path class="st35" d="M631.34,593.29c0.68,0,1.35-0.01,2.03-0.01c0.45,0.41,0.91,0.82,1.37,1.23
			C633.44,594.55,632.31,594.14,631.34,593.29z"/>
		<path class="st39" d="M210.91,554.52c-0.19,0.03-0.38,0.04-0.58,0.04c-0.06-1.16-0.14-2.32,0.59-3.35
			C210.92,552.32,210.91,553.42,210.91,554.52z"/>
		<path class="st39" d="M214.79,540.65c0.05,1.16-0.19,2.17-1.42,2.66C213.58,542.28,213.89,541.31,214.79,540.65z"/>
		<path class="st44" d="M389.12,545.09c0-13.19-0.01-26.39,0-39.58c0-5.73,2.18-7.91,7.89-7.92c10.03-0.01,20.07,0.16,30.09-0.05
			c9.74-0.21,17.7,3.94,24.98,9.7c5.42,4.29,7.22,10.62,8.73,17.06c2.14,9.1,1.01,17.94-4.31,25.38
			c-5.47,7.65-12.93,12.91-22.73,14.94c-6.45,1.33-12.75,0.75-19.11,1.05c-4.67,0.22-6.49,1.83-6.54,6.59
			c-0.05,4.36,0.03,8.72-0.02,13.08c-0.05,4.85-2.39,7.04-7.28,7.23c-9.92,0.38-12.04-0.64-11.77-11.49
			C389.35,569.08,389.12,557.08,389.12,545.09z"/>
		<path class="st44" d="M192.64,586c-3.7,1.52-6.73,4.25-10.65,5.45c-4.28,1.3-8.49,2.54-13.02,2.43
			c-3.49-0.09-6.98-0.06-10.47-0.01c-10.28,0.15-18.67-4.22-26.13-10.84c-7-6.21-13.2-13.07-15.83-22.32
			c-2.24-7.86-3.23-15.83-1.97-24.08c1.15-7.6,3.89-14.38,8.23-20.65c1.14-1.64,2.48-3.01,3.82-4.43
			c7.47-7.89,16.49-13.49,27.21-14.93c13.06-1.76,25.87-0.37,36.94,7.96c1.59,1.19,4.09,1.61,4.34,4.09
			c0.3,2.91-0.92,5.59-2.37,7.93c-1.17,1.89-3.04,3.42-4.81,4.86c-2.79,2.27-5.6,0.3-8.38-0.29c-3.26-1.56-6.24-3.7-9.81-4.59
			c-4.81-0.53-9.63-0.53-14.44,0c-9.16,1.42-15.24,7.55-18.97,15.03c-4.72,9.45-4.41,23.02,5,31.59c3.91,3.56,6.95,8.12,12.48,9.73
			c1.96,0.57,3.85,0.71,5.78,0.63c4.67-0.18,9.37,0.66,14-0.53c3.26-0.84,5.03-2.71,4.71-6.34c-0.23-2.6-0.04-5.24-0.05-7.85
			c-0.01-5.1-1.4-6.61-6.53-6.84c-2.72-0.12-5.46-0.04-8.18-0.02c-1.12,0.01-2.22-0.05-2.96-1.03c-2.35-3.14-1.6-6.81-1.03-10.1
			c0.45-2.58,3.33-3.82,5.9-3.88c8.51-0.17,17.03-0.24,25.54,0c5.67,0.16,6.91,1.78,6.91,7.44c0,10.15-0.21,20.31,0.09,30.45
			C198.12,579.71,196.39,583.22,192.64,586z"/>
		<path class="st6" d="M155.29,516.56c4.81-1.08,9.63-1.08,14.44,0C164.91,516.56,160.1,516.56,155.29,516.56z"/>
		<path class="st44" d="M296.85,359.29c-2.25-3.35-6.27-4.15-9.25-6.46c-5.18-3.23-9.91-6.99-14.3-11.27
			c-5.29-5.15-11.29-9.55-16.29-15.04c-4.03-4.43-7.76-9.09-11.19-13.97c-3.74-5.32-8.06-10.2-11.15-16.03
			c-3.26-6.15-6.56-12.29-9.29-18.68c-0.94-2.2-1.95-4.37-2.92-6.55c-4.37-9.8-6.36-20.34-9.42-30.54
			c-1.9-6.33-2.22-13.02-2.74-19.63c-0.67-8.62-1.5-17.25-3.36-25.7c-2.12-9.66-2.58-19.46-1.63-29.16
			c0.88-8.93,2.78-17.86,6.37-26.19c3.71-8.59,8.49-16.64,13.94-24.26c0.27-0.37,0.67-0.54,1.06-0.73c3.02-3.13,6.03-6.28,9.07-9.39
			c1.6-1.64,3.91-3.6,3-5.71c-1.01-2.35-4.13-2.53-6.65-2.54c-10.25-0.06-20.5-0.03-30.75-0.03c-5.45,0-10.9,0.06-16.36-0.02
			c-3.4-0.05-6.2-0.98-8.11-4.36c-2.09-3.7-0.87-6.71,0.94-9.77c1.19-2.01,3.25-2.27,5.43-2.27c22.68,0.03,45.36-0.02,68.04,0.06
			c4.42,0.02,7.82-1.58,11.1-4.52c6.11-5.47,12.75-10.35,18.87-15.8c8.9-7.92,19.68-12.65,29.9-18.33c7.13-2.6,13.9-6.12,21.27-8.1
			c7.48-2.01,14.65-4.81,22.47-5.99c12.56-1.9,25.07-4.03,37.76-3.47c7.4,0.33,14.82,1.07,22.21,2.23
			c7.05,1.1,14.23,1.79,21.02,3.84c15.01,4.54,29.62,10.25,43.33,17.97c7.95,4.47,15.31,9.82,22.34,15.72
			c5.18,4.35,9.92,9.12,14.9,13.67c2.3,2.1,5.29,2.79,8.49,2.79c22.47-0.05,44.94,0.05,67.42-0.1c3.66-0.02,6.33,0.99,8.28,4.01
			c3.45,6.09,0.49,12.07-6.45,13.16c-1.41,0.22-2.81,0.26-4.22,0.26c-15.13,0-30.26,0-45.38,0c-1.42,0-2.84-0.06-4.17,0.56
			c-1.01,0.47-2.04,0.98-1.39,2.42c0,0,0.01,0.03,0.01,0.03c0.15,1.11,0.62,2.1,1.38,2.89c4.12,4.28,8.27,8.53,12.41,12.78l0,0
			c6.7,9.05,12.62,18.56,15.43,29.58c1.3,5.09,2.36,10.29,3.46,15.44c1.5,7.09,0.82,14.08,1.03,21.11c0.13,4.2-1.07,8.29-1.77,12.42
			c-0.67,3.91-2.16,7.72-1.79,11.83c0.78,8.87-1.35,17.46-2.61,26.14c-1.34,9.25-3.95,18.19-6.33,27.18
			c-1.19,4.5-2.84,8.9-5.4,12.88c-0.01,0.2-0.04,0.4-0.07,0.61c-0.9,1.2-1.44,2.57-1.9,3.98c-0.24,0.42-0.48,0.84-0.72,1.26
			c-0.69,0.76-0.86,1.76-1.25,2.66c-0.67,1.73-1.35,3.46-2.02,5.2c-2.49,3.92-5.11,7.76-7.44,11.77
			c-4.43,7.64-9.66,14.73-15.17,21.57c-7.5,9.32-16.93,16.76-25.59,24.94c-2.74,2.59-6.72,3.55-9.2,6.65
			c-4.67,5.84-9.66,11.43-14.12,17.42c-3.06,4.11-6.4,7.93-9.66,11.86c-5.4,6.49-11.27,12.63-15.93,19.72
			c-0.54,0.82-1.07,1.65-1.1,2.68c-7.59,9.27-15.84,17.99-22.87,27.73c-2.53,3.5-5.27,6.84-7.91,10.26
			c-6.62,6.01-11.94,13.16-17.51,20.08c-2.03,2.53-4.43,4.71-6.13,7.59c-1.54,2.61-6.43,3.16-9.94,1.85
			c-3.18-1.19-3.83-3.58-3.82-6.74c0.09-24.21,0.05-48.42,0.05-72.64c0-1.52-0.19-3-0.47-4.52c-0.51-2.83-2.28-3.66-4.8-3.94
			c-12.37-1.38-24.68-3.05-36.7-6.55c-7.83-2.28-15.6-4.61-22.96-8.17c-0.55-0.27-1.27-0.2-1.91-0.28
			c-1.03-0.55-1.98-1.29-3.21-1.38c-0.7-1.35-2.14-1.4-3.33-1.89C305.08,363.3,300.96,361.29,296.85,359.29z"/>
		<path class="st38" d="M539.07,101.34c-1.28-1.44-0.17-2.08,0.92-2.74c1.2-0.73,2.53-0.57,3.83-0.57c15.38,0,30.77-0.01,46.15,0
			c2.41,0,4.84-0.19,6.97-1.26c4.57-2.29,5.52-5.55,3.75-11.83c0-0.65-0.01-1.3-0.01-1.94c3.43,6.55,3.05,9.52-1.64,13.78
			c-1.85,1.67-4.02,1.95-6.35,1.94c-16-0.01-32-0.03-48.01,0.03C542.5,98.76,539.95,98.37,539.07,101.34z"/>
		<path class="st45" d="M226.69,115.07c-3.55,6.36-7.94,12.19-11.46,18.61c-3.31,6.03-5.06,12.44-6.85,18.92
			c-2.7,9.73-2.96,19.7-2.65,29.72c0.14,4.45,1.43,8.73,2,13.12c0.56,4.28,1.54,8.48,2.08,12.78c1.16,9.33,1.01,18.76,2.93,28.05
			c4.08,19.72,10.57,38.55,20.22,56.2c3.31,6.07,7.37,11.72,11.52,17.34c6.16,8.35,12.25,16.72,20.12,23.43
			c7.17,6.12,13.55,13.21,21.63,18.26c0.53,0.33,0.92,0.88,1.37,1.33c-1.1-0.43-2.2-0.86-3.29-1.29
			c-10.58-8.34-20.37-17.57-30.08-26.88c-4.84-6.19-9.22-12.72-14.31-18.74c-2.89-3.42-4.9-7.56-7.31-11.38
			c-1.12-3.55-3.04-6.72-4.72-10c-8.18-15.93-13.11-32.98-16.65-50.4c-1.04-5.1-2.01-10.43-1.58-15.8c0.1-1.21,0.52-2.64-0.67-3.68
			c-1.16-1.64-0.36-3.52-0.64-5.26c-0.91-2.32,0.35-4.85-0.69-7.16c-0.69-0.52-0.56-1.29-0.62-2.01c-0.84-1.44,0.25-3.15-0.65-4.58
			c-1.03-5.53-2.29-11.02-2.04-16.73c0.19-4.46,0.07-8.94,0.08-13.41c2.3-3.1,1.33-6.91,2.13-10.35
			c2.42-10.48,6.27-20.28,12.08-29.32c0.16-0.25,0.13-0.63,0.19-0.95c2.24-3.47,4.48-6.93,6.72-10.4
			C225.92,114.69,226.31,114.88,226.69,115.07z"/>
		<path class="st44" d="M541.08,559.88c0,8.73,0.01,17.45,0,26.18c0,4.04-2.35,6.4-6.44,6.48c-1.96,0.04-3.93-0.08-5.89,0.03
			c-2.59,0.15-4.49-0.58-6.07-2.88c-2.09-3.02-3.62-3.26-6.53-1c-9.19,7.15-22.79,3.92-30.42-3.21c-5.67-5.31-9.76-11.33-11.52-18.9
			c-1.77-7.62-0.55-15,2.6-21.92c4.11-9.04,11.14-15.1,20.71-18.07c6.54-2.03,12.44-0.94,17.62,3.66c3.36,2.99,5.68,2.68,7.83-1.17
			c0.89-1.59,2.1-2.27,3.77-2.76c2.8-0.81,5.63-0.71,8.43-0.52c3.79,0.26,5.87,2.94,5.89,7.24
			C541.1,541.99,541.08,550.93,541.08,559.88z"/>
		<path class="st7" d="M309.19,365.31c1.51-0.08,3.06-0.22,3.33,1.89C311.36,366.67,310.1,366.29,309.19,365.31z"/>
		<path class="st44" d="M658.32,572.88c-0.68-2.53-2.55-3.48-4.95-3.95c-6.79-1.32-13.49-2.96-19.54-6.48
			c-2.54-1.48-4.69-3.43-6.3-5.93c-0.91-0.68-1.2-1.83-1.95-2.63c-0.23-1.08-0.45-2.17-0.68-3.25c-1-4.16-0.99-8.33-0.01-12.49
			c0.85-4.58,3.1-8.18,7.29-10.41c11.15-4.85,22.5-5.59,33.97-1.31c2.85,1.06,6.39,1.05,8.09,4.34c0.96,4.51-1.74,9.98-5.78,11.71
			c-1.34,0.57-2.62,0.24-3.75-0.48c-5.27-3.35-11.14-2.58-16.88-2.38c-2.28,0.08-4.61,0.91-5.15,3.71c-0.55,2.87,1.29,4.45,3.4,5.76
			c1.68,1.04,3.52,1.42,5.55,1.61c6.78,0.62,13.27,2.74,19.19,5.91c6.19,3.31,9.41,13.35,7.42,20.52c-0.47,1.68-1.09,3.32-1.66,4.97
			c-3.01,8.72-10.29,10.8-18.28,11.76c-4.78,0-9.56-0.02-14.33,0c-6.61,0.03-12.47-2.57-18.11-5.55c-3.66-1.93-4.04-4.15-2.1-7.84
			c1.1-2.1,2.4-4.12,3.74-6.08c1.15-1.69,2.84-1.81,4.63-1.12c1.31,0.51,2.59,1.07,3.89,1.61c5.68,3.6,11.87,4.65,18.45,3.59
			C658.03,577.9,658.9,576.57,658.32,572.88L658.32,572.88z"/>
		<path class="st4" d="M658.31,593.86c1.98-0.55,3.93-1.24,5.94-1.63c8.53-1.66,12.05-8.05,13.45-15.47
			c1.33-7.05,0.17-14.04-6.03-18.94c-3.83-3.03-8.79-3.52-13.2-5.25c-4.05-1.59-8.65-0.51-12.54-2.85
			c-2.28-1.37-4.28-2.95-3.91-5.84c0.38-2.97,2.52-4.51,5.4-4.76c5.2-0.45,10.45-0.91,15.39,1.35c5.37,2.46,10.85-0.83,11.2-6.86
			c0.05-0.87,0.01-1.74,0.01-2.62c-0.38-0.46-0.37-0.92,0.02-1.36c2.13,3.49,0.77,8.35-3.07,11.73c-2.31,2.04-4.47,2.61-7.3,0.86
			c-5.27-3.27-11.16-2.08-16.87-1.79c-1.47,0.08-3.03,0.73-3.48,2.51c-0.48,1.9,0.23,3.35,1.68,4.62c1.18,1.03,2.52,2.14,3.94,2.18
			c6.77,0.15,12.82,2.98,19.14,4.81c0.2,0.06,0.43,0.03,0.65,0.04c13.92,7.05,12.37,24.3,4.76,34.05
			c-2.53,3.25-6.72,3.81-10.42,5.01c-1.53,0.5-3.18,0.6-4.78,0.88C658.32,594.3,658.31,594.08,658.31,593.86z"/>
		<path class="st46" d="M674.05,529.62c-0.01,0.45-0.01,0.91-0.02,1.36c-3.26-3.39-7.76-3.98-11.94-5.2
			c-9.49-2.76-18.81-1.56-28,1.58c-0.61,0.21-1.27,0.25-1.9,0.37c0.23-0.85,0.92-1.09,1.66-1.39c13.02-5.28,25.76-3.75,38.36,1.5
			C673.03,528.2,673.63,528.82,674.05,529.62z"/>
		<path class="st46" d="M624.88,538.15c0,4.16,0.01,8.33,0.01,12.49c-0.22-0.22-0.43-0.44-0.65-0.66
			c-0.51-3.73-0.49-7.46-0.01-11.18C624.45,538.59,624.67,538.37,624.88,538.15z"/>
		<path class="st13" d="M624.23,538.8c0,3.73,0.01,7.46,0.01,11.18C623.25,546.26,623.24,542.53,624.23,538.8z"/>
		<path class="st46" d="M625.57,553.9c1.54,0.22,1.73,1.43,1.95,2.63c-0.24,0.01-0.48,0.02-0.72,0.03
			C625.72,555.98,625.45,555.03,625.57,553.9z"/>
		<path class="st44" d="M233.25,593.19c-16.1-7.56-22.72-20.67-22.23-37.94c2.17-5.05,2.76-10.69,5.95-15.38
			c5.12-7.53,12.23-12.12,20.82-14.79c4.89-1.52,9.88-1.43,14.85-1.24c7.79,0.3,14.75,3.19,20.19,8.63
			c3.47,3.47,5.52,8.14,6.32,13.18c0.2,1.26,0.82,2.45,1.24,3.68c0.49,1.31,0.58,2.62-0.06,3.91c-0.19,0.23-0.38,0.45-0.57,0.68
			c-0.26,5.07-4.15,7.66-7.36,10.7c-0.85,0.8-2.1,0.42-3.17,0.43c-9.82,0.02-19.64,0.01-29.46,0.01c-1.31,0-2.61-0.09-3.83,0.59
			c-1.78,1-2.47,2.25-1.57,4.31c2.18,5.01,6.36,7.07,11.38,7.46c4.34,0.33,8.72,0.12,13.09,0.05c2.45-0.04,4.5-1.54,6.81-2.15
			c3.9-1.04,5.76-0.41,8.03,2.95c4.23,6.24,4.17,12.45-6.2,15.02c-6.22,1.54-12.51,2.96-18.94,2.5
			C243.39,595.41,238.26,594.55,233.25,593.19z"/>
		<path class="st34" d="M264.04,595.2c-0.01,0.19-0.04,0.37-0.08,0.55c-1.08,0.01-2.16,0.02-3.24,0.03
			C261.69,594.82,262.92,595.3,264.04,595.2z"/>
		<path class="st3" d="M322.16,523.24c0.35,1.54,1.62,1.21,2.68,1.31c3.17,1.08,6.44,0.38,9.66,0.48c4.69,0.16,7.31,2.19,8,6.79
			c0.58,3.83-0.01,7.61-1.46,11.15c-0.88,2.14-2.9,3.12-5.3,3.09c-3.04-0.03-6.09-0.08-9.12,0.03c-1.65,0.06-3.56-0.22-4.45,1.83
			c-0.82,1.07-1.16,2.26-1.15,3.62c0.04,5.07-0.03,10.14,0.04,15.21c0.02,1.82,0.21,3.68,1.9,4.9c1.22,1.97,3.04,2.86,5.28,2.55
			c8.4-1.17,11.25,5.32,10.37,12.28c-0.57,4.48-4,7.29-8.57,7.37c-7.21,0.12-14.35,0.38-20.61-4.4c-5.57-4.25-8.62-9.62-8.7-16.59
			c-0.08-6.66,0.01-13.32-0.03-19.97c-0.03-5.59-1.19-6.74-6.68-6.82c-3.85-0.05-6.28-2.37-6.38-6.24c-0.08-3.16-0.02-6.33-0.02-9.5
			c1.14-3.61,3.21-5.53,7.37-5.37c4.31,0.16,5.67-1.59,5.7-6c0.03-3.59,0.18-7.2-0.03-10.78c-0.36-5.94,1.72-6.72,6.26-8.34
			c4.46-1.59,10.55,0.7,13.38,4.56c0.72,0.98,0.73,2.01,0.74,3.09c0.01,3.81,0.04,7.63-0.01,11.44
			C321,520.48,321.14,521.96,322.16,523.24z"/>
		<path class="st44" d="M558.78,575.53c4.28-3.49,5.21-3.66,9.89-0.29c5.26,3.79,11.11,4.76,17.32,4.14
			c2.69-0.27,5.54-0.83,6.12-4.29c0.34-2.02-2.38-5.27-5.15-5.99c-2.4-0.63-4.91-0.85-7.31-1.48c-7.31-1.92-14.39-4.32-19-10.91
			c-0.85-1.22-1.28-2.74-1.9-4.11c-0.96-3.86-0.68-7.78-0.64-11.69c0.05-6.19,3.82-11.61,9.75-13.73
			c12.26-4.38,24.29-3.63,36.11,1.8c2.19,1.01,3.06,2.45,2.54,4.6c-0.67,2.76-1.93,5.31-3.82,7.48c-1.3,1.49-2.98,1.44-4.45,0.46
			c-5.96-3.96-12.65-2.45-19.1-2.59c-1.9-0.04-3.6,0.94-4,3.17c-0.66,3.68,0.33,5.87,3.26,7.23c4.35,2.71,9.52,1.71,14.19,3.16
			c4.43,1.38,8.73,3.16,12.36,5.78c3.98,2.87,5.69,7.71,6.11,12.55c0.93,10.81-5.38,19.02-15.85,21.95
			c-12.71,3.56-24.62,1.88-36.3-3.97c-4.58-2.3-5.41-4.96-2.07-10.34C557.47,577.46,558.73,576.9,558.78,575.53z"/>
		<path class="st47" d="M280.33,553.23c0.02-1.3,0.04-2.61,0.06-3.91C281.35,550.63,281.45,551.94,280.33,553.23z"/>
		<path class="st13" d="M554.87,273.62c5.18-10.74,7.64-22.38,10.03-33.88c1.97-9.49,4.18-19.11,3.64-28.97
			c-0.31-5.63,1.16-10.95,2.23-16.39c2-10.16,2.53-20.32,0.75-30.7c-0.99-5.79-2.27-11.47-3.73-17.12
			c-2.46-9.51-7.22-17.93-12.9-25.87c-0.8-1.13-1.88-2.14-2.04-3.65c3.46,3.21,5.84,7.27,8.16,11.26
			c6.01,10.33,8.9,21.67,11.05,33.4c1.64,8.94,0.62,17.79,1.04,26.66c-0.72,0.52-0.6,1.3-0.61,2.03c-0.89,1.42,0.24,3.14-0.68,4.55
			c-0.73,0.5-0.59,1.28-0.62,2c-0.89,1.42,0.23,3.14-0.68,4.56c-1.12,0.42,0.13,1.5-0.57,2.04c-0.87,3.83-0.16,7.71-0.4,11.56
			c-0.13,2.03,0.35,4.09-0.3,6.09c-1.87,13.03-4.44,25.91-7.88,38.62c-1.35,3.54-2.63,7.1-4.08,10.6
			C556.78,271.64,556.64,273.28,554.87,273.62z"/>
		<path class="st4" d="M639.29,594.52c6.34,0,12.68,0,19.03-0.01c-1.87,1.26-3.99,0.67-5.95,0.58
			C648.01,594.9,643.59,595.95,639.29,594.52z"/>
		<path class="st46" d="M552.9,278.2c-0.07-1.66,0.43-3.05,1.9-3.98C554.63,275.77,553.9,277.05,552.9,278.2z"/>
		<path class="st46" d="M550.92,282.12c-0.11-1.13,0.09-2.12,1.26-2.66C552.16,280.54,551.75,281.43,550.92,282.12z"/>
		<path class="st19" d="M207.65,202.24c1.5,2.26,0.41,4.78,0.69,7.16C207.1,207.11,208.07,204.61,207.65,202.24z"/>
		<path class="st19" d="M206.38,195.65c1.25,1.38,0.47,3.05,0.65,4.58C205.87,198.84,206.6,197.17,206.38,195.65z"/>
		<path class="st13" d="M658.32,572.89c1.37,2.49,0.75,4.33-1.83,5.48c-5.66,2.51-16.45,0.49-20.47-3.48c0-0.22,0-0.44,0.01-0.66
			c5.61,4.23,12.11,4.41,18.66,3.81C657.53,577.77,658.75,575.76,658.32,572.89z"/>
		<path class="st17" d="M569.24,221.19c0-4.88-0.03-9.76,0.01-14.64c0.01-1.03-0.39-2.21,0.7-3.01c-0.06,5.84-0.13,11.68-0.2,17.52
			C569.59,221.14,569.42,221.18,569.24,221.19z"/>
		<path class="st17" d="M571.82,194.95c0.29-1.51-0.54-3.18,0.68-4.55C572.29,191.92,573.1,193.59,571.82,194.95z"/>
		<path class="st17" d="M570.52,201.51c0.28-1.51-0.54-3.19,0.68-4.56C570.99,198.47,571.77,200.14,570.52,201.51z"/>
		<path class="st13" d="M421.37,545.39c-2.72,0-5.44,0.02-8.16-0.01c-2.38-0.03-3.89-1.22-4.39-3.57
			c-1.32-6.24-0.93-12.58-0.42-18.82c0.36-4.46,2.53-5.75,7.15-5.76c4.03-0.01,8.05-0.01,12.08,0c9.05,0.03,16.25,9.02,14.42,17.82
			c-1.25,6-7.49,9.71-12.84,10.3C426.62,545.63,423.99,545.39,421.37,545.39z"/>
		<path class="st48" d="M410.72,267.01c1.47-3.4,3.03-6.76,4.39-10.21c0.9-2.28,1.75-2.73,3.98-1.13
			c12.64,9.14,26.65,15.34,42.08,17.64c14.77,2.2,29.51,1.58,43.92-2.91c13.49-4.21,25.71-10.68,36.25-20.19
			c0.62-0.56,1.41-0.95,2.78-1.86c-3.14,13.36-9.17,24.73-14.91,36.22c-2.71,5.43-6.06,10.44-9.84,15.17
			c-4.51,5.3-8.89,10.72-13.57,15.86c-5.51,6.05-11.56,11.64-18.28,16.27c-7.91,5.44-13.52,12.81-19.16,20.27
			c-0.71,1.23-1.84,2.12-2.65,3.27l0.01-0.01c-0.68,1.26-1.81,2.16-2.67,3.28c-5.79,7.02-11.59,14.04-17.37,21.06
			c-7.02,8.53-13.59,17.42-21.1,25.54c-2.35-0.73-1.67-2.75-1.68-4.32c-0.06-13.27-0.03-26.54-0.04-39.82
			c0-0.87,0.02-1.74-0.01-2.61c-0.14-3.91-1.48-5.37-5.36-5.35c-4.23,0.02-8.51,0.2-12.65,0.8c-5.61,0.81-11.03-0.45-16.54-0.54
			c-2.77-0.05-5.64,0.04-8.42-0.52c-2.39-1.17-4.95-1.27-7.54-1.17c-1.07-0.01-2.11-0.13-3.07-0.65c-0.99-0.76-2.16-0.67-3.31-0.67
			c-3.95-0.31-7.73-1.31-11.43-2.67c-1.07-0.66-2.13-1.34-3.46-1.28c-1.58-0.04-3.07-0.4-4.37-1.35c-0.89-0.7-1.89-1.2-2.98-1.51
			c-0.26-0.08-0.51-0.19-0.76-0.32c-0.83-0.47-1.71-0.77-2.64-0.96c-0.54-0.14-1.02-0.4-1.42-0.79c-0.64-0.81-1.53-1.04-2.5-1.07
			c-0.74-0.08-1.43-0.29-2.02-0.76c-1.26-1.1-2.77-1.67-4.39-1.99c-8.53-3.71-16.15-8.93-23.85-14.09
			c-9.14-6.13-16.87-13.76-24.27-21.72c-7.85-8.45-15.1-17.42-20.66-27.62c-1.25-2.3-2.97-4.32-4-6.74
			c-0.49-1.15-1.47-2.28-0.37-3.61c3.93,1.56,7.81,3.24,11.79,4.66c11.17,3.99,22.76,5.84,34.57,5.51
			c20.21-0.56,38.64-6.83,55.09-18.63c2.32-1.66,3.22-1.54,4.38,1.17c5.22,12.22,10.58,24.37,16.02,36.49
			c2.49,5.57,7.24,7.86,13,6.59c3.35-0.74,5.48-3.05,7-5.9c1.48-2.77,2.71-5.68,4.06-8.53
			C405.76,279.37,408.22,273.18,410.72,267.01z"/>
		<path class="st49" d="M239.91,221.35c-0.72-0.71-1.43-1.41-2.15-2.12c-4.51-4.78-7.14-10.61-9.36-16.68
			c-1.7-4.65-1.37-9.54-0.92-14.26c1.56-16.36,5.47-32.2,12.06-47.26c3.05-6.97,6.62-13.72,10.34-20.38
			c3.93-7.05,10.41-11.02,17.43-14.22c6.95-3.17,14.19-5.73,21.74-6.93c8.41-1.34,16.87-1.39,25.29,0.46
			c7.78,1.71,15.38,3.81,22.46,7.6c3.67,1.96,7.13,4.19,10.43,6.7c3.54,3.69,7.8,6.63,11.18,10.52c1.29,1.49,2.58,2.96,3.7,4.57
			c3.61,4.94,6.91,10.07,9.43,15.67c4.33,10.71,6.89,21.75,6.72,33.38c-0.06,4.22-1.18,8.17-2.2,12.17
			c-0.05,0.35-0.12,0.69-0.2,1.03c-0.31,0.61-0.56,1.25-0.92,1.84c-2.86,8.82-7.25,16.78-13.37,23.76
			c-13.34,15.21-29.72,24.51-50.14,26.55c-14.88,1.49-28.87-1.1-42.1-7.85c-10.67-5.44-19.42-13.19-26.55-22.8
			c-0.65-0.88-1.29-1.76-2-2.56c-0.07-0.06-0.15-0.13-0.22-0.22c-0.22-0.25-0.46-0.22-0.41,0.02c0.51,2.33,0.51,4.73,0.9,7.08
			C241.31,218.79,241.87,220.51,239.91,221.35z"/>
		<path class="st48" d="M394.99,122.21c-1.46,2.52-2.89,5.06-4.4,7.55c-0.47,0.78-0.52,2.19-1.74,2.06
			c-0.88-0.09-1.1-1.26-1.51-2.02c-4.62-8.61-10.24-16.54-17.23-23.33C355.92,92.7,339.09,84,319.72,79.54
			c-9.16-2.11-18.18-1.3-27.27-1.75c-0.73-0.04-1.47-0.09-2.33-0.49c18.97-14.95,40.13-25.19,63.76-30.42
			c23.74-5.25,47.44-5.26,71.13,0.07c23.65,5.33,44.87,15.7,63.98,30.61c-0.8,1.28-1.77,0.85-2.54,0.86
			c-4.04,0.05-8.08-0.02-12.11,0.02c-22.35,0.23-41.75,8.35-59.2,21.91c-6.69,5.2-12.13,11.54-17.46,18.03
			C396.56,119.5,395.92,120.95,394.99,122.21z"/>
		<path class="st50" d="M362.95,219.23c-11.18,17.43-27.48,27.62-47.4,31.34c-28.63,5.35-52.88-3.46-72.38-25.14
			c-0.79-0.87-1.33-1.97-1.98-2.96c-0.22-3.52-1.28-7.05,0.04-10.56c2.58,0.71,3.23,3.32,4.66,5.06c4.44,5.41,9.93,9.61,15.15,14.14
			c0.94,1.03,2.18,1.58,3.42,2.14c5.7,3.1,11.45,6.07,17.77,7.72c1.31,0.59,2.71,0.89,4.11,1.2c0.33,0.03,0.65,0.09,0.96,0.19
			c1.86,0.89,3.88,0.88,5.87,1.09c1.59,0.1,3.19-0.22,4.75,0.27c4.2,1.22,8.39,1.26,12.55-0.16c1.23-0.17,2.47-0.08,3.7-0.12
			c1.82-0.25,3.72-0.1,5.39-1.09c2.08-0.27,4.02-1.12,6.06-1.51c1.35,0.03,2.56-0.51,3.8-0.92c0.25-0.13,0.51-0.23,0.77-0.33
			c0.89-0.37,1.79-0.71,2.61-1.23c0.67-0.23,1.27-0.66,1.99-0.77c1.82-0.36,3.4-1.19,4.78-2.41c0.7-0.54,1.42-1.05,2.21-1.46
			c0.95-0.41,1.9-0.81,2.78-1.36c6.57-5.02,12.99-10.21,18.21-16.7c0.55-0.68,1.04-1.5,1.93-1.68c1.11-0.22,1.41,0.3,0.85,1.29
			c-0.23,0.44-0.47,0.89-0.7,1.33C364.28,217.53,363.48,218.28,362.95,219.23z"/>
		<path class="st51" d="M388.86,219.56c3.23,6.8,7.15,12.4,11.19,17.92c0.53,0.73,0.58,1.24-0.07,1.97
			c-4.45,5-5.85,11.59-8.85,17.34c-0.69,1.33-1,2.86-2.46,4.42c-1.78-3.92-3.45-7.6-5.1-11.28c-1.64-3.67-2.9-7.54-5.73-10.55
			c-0.73-0.78-0.71-1.61-0.13-2.36C381.79,231.69,385.44,226.08,388.86,219.56z"/>
		<path class="st1" d="M423.85,406.73c0.33,3.31-1.48,5.59-3.3,8.17c-4.45,6.3-10.97,10.88-14.5,17.92
			c-1.07,2.14-3.07,3.73-5.61,3.05c-2.5-0.67-2.81-3-2.81-5.31c0.02-17.67,0.01-35.35,0.01-53.02c0-6.63-2.96-9.82-9.45-9.6
			c-11.47,0.39-22.59-1.6-33.83-3.67c-10.46-1.93-20.38-5.28-30.05-9.29c-12.69-5.26-24.08-12.91-35.1-21.1
			c-5.67-4.22-11.26-8.65-16.04-13.76c-4.14-4.42-8.06-9.09-12.35-13.4c-0.49-0.49-0.72-1.08-0.69-1.77
			c1.54-0.78,2.1,0.52,2.86,1.36c4.03,4.52,8.06,9.13,12.32,13.34c5.56,5.49,11.49,10.86,18.28,15c0.4,0.26,0.77,0.55,1.13,0.85
			c10.76,7.29,21.5,14.64,33.95,18.89c10.76,4.6,21.98,7.4,33.58,8.79c8.31,1.82,16.68,3.01,25.2,2.45
			c10-0.66,12.84,5.21,12.99,12.87c0.24,12.21,0.06,24.42,0.07,36.63c0,6,0,11.99,0.01,17.97c0.02,0.61-0.03,1.31,0.98,0.9
			c1.65-0.66,2.68-1.92,3.43-3.46c0.21-0.4,0.47-0.76,0.77-1.1c3.9-5.5,9.13-9.86,13.1-15.31c1.37-1.88,2.74-3.62,3.03-5.99
			C422.25,407.31,422.38,406.06,423.85,406.73z"/>
		<path class="st41" d="M347.1,115.14c-16.74-12.68-35.71-17.57-56.34-14.93c-12.53,1.6-24.26,6.1-34.5,13.89
			c-3.06,2.33-4.81,5.61-6.65,8.81c-9.27,16.08-15.97,33.13-19.36,51.42c-1.29,6.97-2.49,14.01-2.28,21.09
			c0.23,7.64,4.11,14.11,7.99,20.48c0.65,1.07,1.98,1.81,1.82,3.33c-0.42-0.22-0.83-0.44-1.25-0.66c-0.82-0.5-1.45-1.2-2.03-1.95
			c-3.66-4.17-5.81-9.09-7.15-14.4c-0.51-6.79-0.49-13.58-0.01-20.38c0.06-0.9-0.29-1.89,0.63-2.58c1.04-1.87-0.2-4.02,0.7-5.9
			c0-0.71-0.14-1.47,0.61-1.96c0.99-1.42-0.16-3.16,0.69-4.6c0-0.71-0.13-1.47,0.62-1.95c0.9-0.96-0.08-2.31,0.69-3.29
			c2.3-8.04,4.44-16.1,8.63-23.48c3.1-5.47,5.62-11.28,8.62-16.82c4.39-8.11,11.25-13.38,19.85-16.51c2.25-0.82,4.43-1.81,6.67-2.64
			c4.28-1.58,8.67-2.81,13.21-3.41c4.26-0.93,8.6-0.5,12.9-0.59c6.24-0.13,12.49,0.09,18.55,1.91c2.03,1.17,4.18,1.93,6.55,1.96
			c5.97,1.56,11.19,4.68,16.38,7.85l0,0c2.05,1.5,4.66,2.44,5.31,5.34C347.65,115.37,347.37,115.36,347.1,115.14z"/>
		<path class="st52" d="M401.38,185.85c-0.73-0.52-0.35-1.37-0.59-2.04c-0.11-5.96-0.74-11.9-0.79-17.86
			c-0.01-1.19-0.09-2.41,0.64-3.46c2.25-0.44,1.69,1.43,1.72,2.39c0.16,4.02,0.29,8.04,0.64,12.06
			c1.25,14.25,6.61,26.79,15.48,37.86c12.34,15.41,28.3,24.89,47.91,27.31c22.74,2.8,42.98-3.23,60-18.96
			c9.99-9.24,17.21-20.19,20.71-33.45c0.28-1.05,0.64-2.1,1.67-2.71c0.35-0.12,0.67-0.07,0.97,0.15c0.34,1.16,0.12,2.35,0.16,3.53
			c-0.33,1.26-0.63,2.53-1.15,3.74c-2.93,7.72-6.64,15.02-11.63,21.63c-1.02,1.11-2.15,2.12-2.91,3.45
			c-3.5,4.45-8.25,7.51-12.47,11.16c-1.03,0.62-1.92,1.41-2.79,2.24c-3.47,2.91-7.52,4.79-11.64,6.55
			c-1.16,0.23-2.28,0.59-3.34,1.12c-0.27,0.11-0.55,0.2-0.83,0.26c-1.15,0.15-2.2,0.6-3.24,1.1c-0.27,0.11-0.56,0.19-0.84,0.26
			c-1.33,0.21-2.57,0.7-3.83,1.13c-0.3,0.1-0.6,0.17-0.91,0.22c-1.64,0.1-3.14,0.75-4.68,1.24c-0.53,0.15-1.06,0.23-1.61,0.24
			c-6.78,1.18-13.61,0.49-20.41,0.66c-1.66,0.01-3.23-0.49-4.82-0.87c-1.11-0.41-2.27-0.52-3.45-0.51
			c-11.95-3.06-23.05-7.71-32.26-16.33c-7.04-6.59-13.41-13.66-18.6-21.8c-0.77-1.2-1.52-2.39-1.86-3.8
			c-1.4-4.24-3.33-8.28-4.46-12.61l0.03,0.03C401.39,188.59,402.58,186.98,401.38,185.85z"/>
		<path class="st53" d="M423.85,406.73c-1.02,0.1-1.24,0.82-1.32,1.66c-0.38,0.29-0.7,0.24-0.99-0.14
			c-0.91-1.62-0.65-3.39-0.65-5.12c-0.02-14.49,0-28.98-0.02-43.47c0-4.4-0.15-4.36-4.64-4.57c-5.68-0.26-11.29,0.82-16.96,0.68
			c-15.97-0.4-31.65-2.6-46.96-7.28c-7.52-2.29-14.83-5.06-21.75-8.79c-0.26-0.26-0.45-0.57-0.55-0.92c0.23-1.1,0.94-1.31,1.87-0.9
			c0.95,0.42,1.94,0.75,2.89,1.19c0.48,0.75,1.25,0.62,1.97,0.65c0.84,0.49,1.88,0.6,2.62,1.31c0.29,0.52,0.78,0.63,1.31,0.66
			c0.73,0.73,1.75,0.86,2.62,1.31l0,0c1.03,0.59,2.23,0.77,3.28,1.3c1.43,0.76,2.86,1.54,4.58,1.32c1.03,0.59,2.23,0.77,3.29,1.3
			c3.87,1.13,7.69,2.49,11.78,2.63c0.97,0.8,2.29-0.12,3.27,0.66c0.7,0.93,1.72,0.55,2.62,0.65c2.34,0.79,5.01-0.22,7.21,1.3
			c6.62,0.01,13.19,0.79,19.78,1.18c4.72,0.28,9.5-0.52,14.25-0.85c0.32-0.02,0.63-0.23,0.94-0.24c7.65-0.32,9.62,0.18,9.57,8.17
			c-0.07,13.72-0.03,27.45,0,41.18c0,1.24-0.49,2.65,0.72,3.68C424.33,405.77,424.09,406.25,423.85,406.73z"/>
		<path class="st54" d="M402.15,189.76c2.11,3.99,3.78,8.18,5.3,12.43c-0.64,0.74-0.2,1.48,0.11,2.13
			c9.57,19.67,23.49,34.81,44.63,42.15c13.13,4.56,26.5,5.22,40.22,2.37c16.72-3.47,30.37-11.9,41.3-24.65
			c7.37-8.59,12.87-18.37,14.56-29.86c-0.07-1.28,0.33-2.38,1.22-3.3c0.91,0.9,0.01,2.16,0.63,3.11c0.47,5.5-2.3,10.09-4.43,14.77
			c-5.86,12.86-15.04,22.96-26.66,30.91c-0.35,0.24-0.63,0.58-0.94,0.88c-4.76,3.77-10.35,6.01-15.96,7.94
			c-8.83,3.03-17.99,4.71-27.39,4.28c-8.47-0.39-16.8-1.6-24.69-4.97c-15.3-6.27-27.91-15.87-36.96-29.86
			C407.49,209.4,403.33,200.16,402.15,189.76z"/>
		<path class="st55" d="M341.96,234.29c-0.65,0.44-1.29,0.88-1.94,1.32c-1.65,1.08-3.47,1.82-5.26,2.61
			c-0.65,0.22-1.29,0.45-1.94,0.67c-0.89,0.41-1.91,0.55-2.65,1.29l0,0c-1.29,0.48-2.73,0.53-3.93,1.31
			c-2.27-0.03-4.2,1.65-6.53,1.32c-1.66,0.81-3.58,0.58-5.26,1.3c-1.3,0-2.61,0.01-3.91,0.01c-4.16,0.91-8.32,1.06-12.48,0
			c-1.74-0.01-3.48-0.01-5.22-0.02c-1.9-0.73-3.99-0.61-5.9-1.3c-0.22,0-0.43,0-0.65-0.01c-1.2-0.78-2.64-0.83-3.95-1.3
			c-4.1-0.31-7.58-2.43-11.21-4.03c-2.45-1.08-5-2.09-7.13-3.82c-0.95-0.91-2.17-1.36-3.29-1.98c-7.07-5.82-14.35-11.45-18.98-19.63
			c-0.91-0.54-1.35-1.2-0.57-2.18c2.37,2.83,4.67,5.73,7.13,8.48c12.81,14.34,28.7,22.43,47.91,24.54
			c12.82,1.41,24.95-0.58,36.64-5.46c15.37-6.42,27.11-17.15,35.7-31.4c2.48-4.12,4.08-8.63,6.12-12.94
			c0.57,0.62,0.39,1.29,0.13,1.96c-1.96,6.36-4.04,12.67-7.65,18.35c-0.44,0.7-0.59,1.67-1.59,1.91c-0.97-1.97-1.47-0.06-1.77,0.35
			c-5.09,6.78-12.04,11.56-18.26,17.12c-0.21,0.19-0.62,0.15-0.94,0.22C343.72,233.43,342.68,233.54,341.96,234.29z"/>
		<path class="st56" d="M256.82,263.95c1.99,6.43,5.87,11.89,9.57,17.32c6.99,10.26,15.05,19.66,24.04,28.29
			c11.8,11.31,25.14,20.33,39.75,27.55c0.4,0.36,0.34,0.76,0.11,1.17l-0.11,0.14c-1.25,0.95-2.31,0.05-3.31-0.45
			c-13.34-6.69-25.45-15.15-36.37-25.3c-12.12-11.27-22.61-23.89-31.02-38.18c-1.61-2.73-2.96-5.58-4.34-8.43
			c-0.46-0.96-1.08-1.95-0.37-3.08c0.48-0.29,0.93-0.23,1.32,0.17C256.34,263.41,256.58,263.68,256.82,263.95z"/>
		<path class="st57" d="M401.41,162.48c-0.99,5.24-0.44,10.54-0.52,15.81c-0.03,1.84-0.07,3.68-0.1,5.52
			c-1.18-2.75-0.2-5.66-0.58-8.46c-0.67-1.01,0.19-2.3-0.6-3.29c-0.01-0.22-0.01-0.43,0-0.65c-0.43-4.62-0.85-9.24,0.66-13.77
			c0.53-2.73,1.52-5.31,2.63-7.85c0.59-1.03,0.77-2.22,1.3-3.28l0,0c0.51-0.84,0.63-1.87,1.31-2.62l0,0
			c0.81-1.78,1.52-3.61,2.63-5.24c2.88-4.99,6.15-9.72,10.24-13.75c5.54-5.47,10.44-11.66,17.39-15.59c1.24-0.7,2.35-1.57,3.87-1.43
			c1.15,1.58-0.58,1.65-1.22,2.05c-3.77,2.36-7.43,4.82-10.25,8.33c-3.56,4.24-7.74,7.87-11.24,12.21
			c-7,8.67-11.09,18.63-14.13,29.16C402.48,160.64,402.5,161.84,401.41,162.48z"/>
		<path class="st28" d="M441.51,107.2c2.03-3.26,5.73-3.7,8.84-4.92c9.59-3.75,19.63-5.55,29.92-4.82
			c8.85,0.63,17.5,2.15,25.79,5.81c4.16,1.83,8.21,3.77,12.17,5.96c0.94,0.52,2.07,0.78,2.54,1.92c-0.36,0.4-0.83,0.53-1.35,0.54
			c-2.28-0.44-4.17-1.69-6.04-2.95c-2.99-2.02-6.33-3.13-9.78-3.99c-1.88-0.45-3.74-0.97-5.43-1.94c-0.92-0.75-2.05-0.57-3.11-0.66
			c-0.83-0.06-1.6-0.3-2.32-0.71c-1.55-0.9-3.26-0.37-4.89-0.53c-1.1-0.02-2.15-0.23-3.11-0.8c-5.5-0.86-11-0.61-16.5-0.12
			c-7.25,1.07-14.19,3.27-20.99,5.96C445.3,106.21,443.69,107.99,441.51,107.2z"/>
		<path class="st33" d="M293.45,335.21c-3.02-0.91-5.25-3.18-7.35-5.19c-4.82-4.6-10.62-8.03-14.67-13.61
			c-3.11-4.29-7.1-8.05-11.28-11.46c-0.13-1.83-2.02-2.42-2.71-3.85c-2.12-3.6-4.53-7.02-6.79-10.53c-1.67-2.6-3.19-5.26-3.89-8.31
			c0.2-0.27,0.48-0.39,0.81-0.4c1.28,0.39,1.82,1.48,2.41,2.53c7.51,13.3,17.01,25.07,27.98,35.61c4.15,3.99,8.38,7.96,13.08,11.34
			c1.11,0.8,2.5,1.44,2.8,3.04C293.81,334.7,293.68,334.98,293.45,335.21z"/>
		<path class="st4" d="M347.88,115.01c-1.3-2.19-3.68-3.28-5.26-5.18c1.02,0.06,1.92,0.5,2.66,1.13c10,8.38,19.93,16.98,25.58,29.03
			c3.65,7.78,6.25,16.02,7.9,24.58c1.05,5.48,0.4,10.93,0.95,16.39c0.45,4.45-2.27,8.67-4.27,12.75c-0.6-0.63-0.44-1.31-0.14-2.01
			l0.01-0.05c3.12-7.09,3.36-14.64,2.51-22.05c-1.03-9.04-3.45-17.85-7.2-26.21c-2.61-4.72-5.07-9.54-8.65-13.64
			c-2.66-4.81-6.78-8.26-10.97-11.6C349.83,117.2,348.61,116.38,347.88,115.01z"/>
		<path class="st13" d="M519.46,111.15c0.44,0,0.88,0,1.32,0c4.81,4.14,9.03,8.62,11.92,14.47c4.83,9.76,9.44,19.58,12.86,29.94
			c2.83,8.58,4.02,17.5,5.73,26.31c0.31,1.59-0.01,3.64-1.02,5.27c-1.05-1.04-0.9-2.39-0.96-3.68c-0.14-2.67-1.16-5.21-1.26-7.88
			c-0.1-1.48,0.26-3.01-0.44-4.44c-2.2-7.07-4.24-14.2-6.28-21.32c-2.07-7.22-5.63-13.67-8.9-20.29c-1.98-4-3.74-8.13-6.89-11.42
			c-0.23-0.21-0.45-0.44-0.65-0.67C523.37,115.09,520.37,114.02,519.46,111.15z"/>
		<path class="st58" d="M450.06,247.94c7.03,1.85,14.01,3.69,21.34,4.26c11.86,0.91,23.11-1.14,34.11-5.35
			c4.39-1.68,8.41-4.07,12.59-6.15c-0.36,1.3-1.45,1.81-2.51,2.39c-7.04,3.87-14.39,7.17-22.26,8.63
			c-9.46,1.75-19.02,2.62-28.7,0.57c-4.23-0.89-8.46-1.66-12.61-2.9C451.13,249.12,450.36,248.91,450.06,247.94z"/>
		<path class="st28" d="M246.95,282.13c2.06,5.48,5.49,10.16,8.71,14.97c0.81,1.21,2.1,2.26,1.78,4c-4.16-4.49-7.13-9.77-9.9-15.17
			c-3.37-6.59-6.73-13.18-10.11-19.75c-2.46-4.78-3.67-10.01-5.39-15.05c-0.56-1.65,0.29-2.96,1.85-3.75
			c0.22,0.24,0.37,0.52,0.44,0.83c0.03,0.32,0.01,0.64-0.04,0.96c-0.3,4.92,2.23,9.1,3.66,13.55c0.62,1.93,1.72,3.7,2.92,5.38
			c1.5,3.66,3.28,7.19,5.06,10.72C246.46,279.86,247.14,280.86,246.95,282.13z"/>
		<path class="st59" d="M233.98,248.22c-0.03-0.28-0.06-0.56-0.08-0.84c0.21-0.02,0.42-0.02,0.64-0.02
			c0.99-0.21,1.78,0.39,2.65,0.67l0,0c0.9,0.62,1.69,1.38,2.6,1.98c4.53,3.32,9.09,6.59,13.56,9.99c1.09,0.83,2.24,1.75,2.76,3.14
			c-0.45-0.03-0.89-0.06-1.34-0.09c-1.98-0.13-3.33-1.57-4.75-2.61C244.6,256.46,238.6,253.23,233.98,248.22z"/>
		<path class="st4" d="M319.69,100.02c-10.41-2.07-20.95-1.13-31.45-1.32c3.9-2.1,8.19-1.01,12.24-1.15
			c6.06-0.22,12.23-0.17,18.12,1.85C319,99.52,319.33,99.8,319.69,100.02z"/>
		<path class="st40" d="M441.51,107.2c1.75-0.66,3.49-1.32,5.24-1.98c0.24,0.24,0.34,0.54,0.33,0.87c-0.56,1.52-2.04,1.9-3.28,2.5
			c-4.71,2.31-9.21,4.96-13.23,8.37c-0.79,0.67-1.61,1.63-2.83,0.65c2.62-3.71,6.47-5.92,10.18-8.31c0.61-0.39,1.73-0.25,1.69-1.44
			C440.08,107.19,440.84,107.32,441.51,107.2z"/>
		<path class="st60" d="M241.18,209.86c0.19,0.73,0.38,1.46,0.57,2.18c-0.66,2.76-0.78,5.56-0.32,8.35
			c0.13,0.76,0.48,1.44-0.23,2.07c-0.62-0.16-1.12-0.45-1.28-1.12c1.02-3.44-0.39-6.76-0.57-10.14c-0.06-1.06-0.46-2.09-0.01-3.2
			C240.52,208.07,240.9,208.91,241.18,209.86z"/>
		<path class="st61" d="M410.72,267.01c0.22,2.87-1.61,5.06-2.66,7.45c-1.62,3.68-2.55,7.74-5.33,10.86
			C404.99,279.03,407.55,272.89,410.72,267.01z"/>
		<path class="st62" d="M519.36,299.74c3.28-5.06,6.56-10.11,9.84-15.17C527.17,290.43,523.9,295.49,519.36,299.74z"/>
		<path class="st4" d="M342.63,109.83c-3.59-1.79-7.17-3.61-10.79-5.37c-1.83-0.89-3.73-1.66-5.59-2.49
			c2.58-0.42,4.68,0.88,6.71,2.08C336.19,105.97,340.16,106.65,342.63,109.83z"/>
		<path class="st63" d="M227.32,181.84c0,6.79,0.01,13.58,0.01,20.38c-1.13-1.19-0.69-2.69-0.62-4.02
			C226.98,192.74,225.91,187.24,227.32,181.84z"/>
		<path class="st46" d="M400.25,157.65c-0.91,4.56-0.59,9.17-0.66,13.77C398.72,166.77,398.05,162.14,400.25,157.65z"/>
		<path class="st64" d="M550.22,183.19c0.02,1.31,0.04,2.63,0.06,3.94c-0.05,2.34-0.1,4.67-0.15,7.01c-0.93-0.9-0.27-2.11-0.63-3.12
			c0.03-1.3,0.06-2.59,0.09-3.89C548.73,185.65,547.95,184.18,550.22,183.19z"/>
		<path class="st46" d="M408.11,138.65c-0.49,1.94-1.3,3.72-2.63,5.24C405.64,141.78,406.39,139.97,408.11,138.65z"/>
		<path class="st63" d="M228.65,173.35c-0.29,1.96,0.71,4.07-0.7,5.9C228.31,177.3,227.35,175.19,228.65,173.35z"/>
		<path class="st65" d="M394.99,122.21c0.34-1.67,1.04-3.09,2.69-3.84C397.18,119.93,396.4,121.29,394.99,122.21z"/>
		<path class="st66" d="M463.04,358.68c0.35-1.53,1.39-2.5,2.67-3.27C465.58,357.12,464.42,357.99,463.04,358.68z"/>
		<path class="st66" d="M465.7,355.41c0.35-1.53,1.35-2.52,2.65-3.27C468.19,353.82,467.04,354.7,465.7,355.41z"/>
		<path class="st63" d="M229.96,166.8c-0.26,1.53,0.66,3.24-0.69,4.6C229.57,169.87,228.73,168.18,229.96,166.8z"/>
		<path class="st46" d="M404.18,146.51c0.05,1.29-0.27,2.43-1.3,3.28C402.84,148.51,403.16,147.37,404.18,146.51z"/>
		<path class="st55" d="M362.95,219.23c0-1.34,0.87-2.04,1.92-2.61C364.74,217.86,364.09,218.72,362.95,219.23z"/>
		<path class="st28" d="M239.78,250.01c-1.31-0.07-2.04-0.92-2.6-1.98C238.49,248.1,239.22,248.94,239.78,250.01z"/>
		<path class="st54" d="M401.38,185.85c1.53,1.06,0.6,2.62,0.8,3.95C401.05,188.66,401.74,187.15,401.38,185.85z"/>
		<path class="st63" d="M231.27,161.56c-0.15,1.11,0.48,2.39-0.69,3.29C230.78,163.74,230.22,162.48,231.27,161.56z"/>
		<path class="st46" d="M405.49,143.89c-0.09,1.05-0.45,1.96-1.31,2.62C404.12,145.39,404.32,144.4,405.49,143.89z"/>
		<path class="st16" d="M375.3,191.7c0.05,0.67,0.09,1.34,0.14,2.01c-0.21,0.44-0.43,0.88-0.64,1.32c-0.04-0.65-0.08-1.31-0.13-1.96
			C374.88,192.62,375.09,192.16,375.3,191.7z"/>
		<path class="st46" d="M399.6,172.06c1.07,0.94,0.53,2.17,0.6,3.29C399.22,174.4,399.72,173.17,399.6,172.06z"/>
		<path class="st63" d="M234.49,216.62c0.95,0.37,1.58,1.06,2.03,1.95C235.27,218.52,234.65,217.8,234.49,216.62z"/>
		<path class="st28" d="M237.18,248.03c-0.97,0.11-1.82-0.21-2.65-0.67C235.74,246.3,236.4,247.38,237.18,248.03z"/>
		<path class="st21" d="M518.82,565.06c-5.01,9.04-16.92,9.7-23.6,1.3c-1.59-3.66-1.12-7.43-0.56-11.2
			c2.44,0.98,1.32,3.13,1.41,4.74c0.29,5.12,2.98,8.67,7.88,9.94c7.33,1.9,13.35-2.47,13.97-10.07c0.11-1.41-0.51-3.14,1.29-4.03
			C520.28,558.9,520.07,562,518.82,565.06z"/>
		<path class="st67" d="M495.33,555.25c-1.71,3.69-0.56,7.41-0.11,11.12c-0.18-0.12-0.43-0.2-0.53-0.36
			c-2.08-3.51-0.59-12.15,2.22-15.47c4.53-5.36,11.12-5.47,15.83-3.47c0.09,0.04,0.15,0.16,0.22,0.24
			c-0.11,0.13-0.22,0.25-0.33,0.38c-0.59,0.37-1.26,0.46-1.93,0.5c-5.97-0.73-10.83,0.95-14.02,6.36
			C496.4,555,495.94,555.31,495.33,555.25z"/>
		<path class="st67" d="M518.82,565.06c0.14-3.04,1.84-6.12-0.26-9.1c-1.94-2.19-3.58-4.62-5.5-6.83c-0.25-0.56-0.51-1.13-0.18-1.75
			c0,0,0.07-0.08,0.07-0.08C519.73,550.67,522.08,558,518.82,565.06z"/>
		<path class="st6" d="M246.01,556.53c-2.84,0-5.67,0.06-8.51-0.01c-3.25-0.08-4.79-2.39-3.81-5.53c1.64-5.21,6.25-7.08,10.61-8.84
			c6.45-2.61,11.33-0.78,15.18,5c2.27,3.41-0.54,9.18-4.64,9.37C251.91,556.63,248.96,556.52,246.01,556.53z"/>
		<path class="st44" d="M301.36,561.99c0-3.93,0.05-7.86-0.02-11.78c-0.06-3.34-1.48-4.68-4.84-4.82c-6.57-0.27-8.24-2.03-8.24-8.73
			c0-1.2-0.04-2.4,0.01-3.6c0.23-5.19,2.36-7.25,7.5-7.32c4.31-0.05,5.57-1.33,5.58-5.72c0.02-3.93,0-7.85,0.01-11.78
			c0.01-5.23,5.07-9.19,10.21-7.78c5.68,1.56,9.45,3.02,8.82,11.05c-0.23,2.93-0.06,5.89-0.03,8.83c0.04,3.97,1.36,5.33,5.26,5.38
			c2.94,0.04,5.89-0.05,8.84,0.02c4.31,0.11,6.92,2.71,6.83,6.98c-0.06,2.79,0.32,5.56-0.67,8.39c-1.16,3.32-3.37,4.26-6.46,4.26
			c-2.95,0-5.89-0.05-8.84,0.01c-3.51,0.07-4.92,1.48-4.96,5.02c-0.05,5.24,0.36,10.51-0.12,15.7c-0.5,5.46,3.76,9.61,9.49,9.43
			c1.67-0.05,3.42-0.45,4.99,0.88c3.15,2.68,3.9,10.92,1.14,14.01c-0.97,1.09-2.13,2.04-3.6,2.04c-7.14,0.02-14.31,0.84-21-3.08
			c-6.27-3.67-8.93-9.31-9.81-15.97C300.96,569.68,301.36,565.8,301.36,561.99z"/>
		<path class="st49" d="M410.46,531.41c0-3.26,0-6.52,0-9.79c0-1.72,0.74-2.55,2.57-2.53c5.33,0.07,10.68-0.18,16,0.1
			c6.26,0.33,10.99,5.39,11.23,11.48c0.28,7.04-3.47,11.93-10.3,12.83c-5.73,0.75-11.52,0.37-17.28,0.19
			c-1.5-0.05-2.19-0.72-2.19-2.18c0-3.37,0-6.74,0-10.11C410.49,531.41,410.47,531.41,410.46,531.41z"/>
		<path class="st68" d="M379.31,352.17c-2.34-0.78-4.94-0.12-7.21-1.3C374.52,351.16,377.21,350.01,379.31,352.17z"/>
		<path class="st68" d="M330.29,338.27c-0.04-0.39-0.07-0.78-0.11-1.17c1.8,0.02,3.28,0.77,4.57,1.98
			C333.15,339.46,331.94,337.63,330.29,338.27z"/>
		<path class="st68" d="M354.42,346.92c-1.29,0.06-2.43-0.26-3.29-1.3C352.42,345.58,353.56,345.91,354.42,346.92z"/>
		<path class="st68" d="M346.56,344.31c-1.29,0.05-2.43-0.26-3.28-1.3C344.56,342.96,345.7,343.29,346.56,344.31z"/>
		<path class="st68" d="M369.47,350.21c-1.1-0.16-2.35,0.42-3.27-0.66C367.3,349.71,368.56,349.12,369.47,350.21z"/>
		<path class="st68" d="M343.28,343c-1.12,0.06-2.12-0.12-2.62-1.31C341.7,341.8,342.61,342.16,343.28,343z"/>
		<path class="st68" d="M339.34,341.04c-1.04-0.11-1.95-0.46-2.62-1.31C337.85,339.67,338.85,339.85,339.34,341.04z"/>
		<path class="st57" d="M334.81,206.18c-6.73,7.47-15.28,11.55-25,13.48c-9.37,1.86-18.29,0.43-26.86-3.64
			c-7.24-3.67-13.04-8.96-17.6-15.65c-4.83-7.85-7.17-16.36-6.77-25.58c0.07-1.69,0-3.85,2.88-2.78l-0.01-0.01
			c0.21,0.29,0.26,0.61,0.15,0.95c-1.77,5.96-0.37,11.82,1.59,17.27c4.46,12.38,13.54,20.97,25.62,25.37
			c7.54,2.75,15.87,3.05,24.01,0.37c6.7-2.2,13.17-4.74,18.34-9.6c3.41-3.2,5.55-7.48,7.94-11.5c0.74-1.24,0.94-3,2.83-3.27
			c0.57,0.5,0.64,1.15,0.53,1.85C340.71,198.16,337.55,202.05,334.81,206.18z"/>
		<path class="st69" d="M268.62,175.3c5.48,0.97,10.88,1.43,16.36-0.39c10.81-3.6,17.94-15.48,15.99-26.74
			c-0.49-2.81-1.23-5.47-2.27-8.1c-0.33-0.53-0.41-1.04,0.08-1.53c2.66,0.25,3.32,2.44,3.65,4.38c0.97,5.61,1.17,11.38,0.1,16.9
			c-1.77,9.08-13.01,18.04-22.32,18.34c-3.23,0.1-6.54,0.63-9.71-0.59C269.8,176.89,268.43,176.73,268.62,175.3z"/>
		<path class="st16" d="M370.77,142.62c2.76,7.13,5.67,14.12,6.79,21.87c0.75,5.2,0.92,10.33,1.12,15.51
			c0.16,4.29-1.58,7.96-3.36,11.65c0.65-4.81,2.07-9.45,2.03-14.42c-0.08-10.21-1.95-20.01-5.62-29.5c-0.39-1-0.66-2.05-0.99-3.07
			C370.41,143.98,370.28,143.3,370.77,142.62z"/>
		<path class="st30" d="M298.74,138.67c-0.01,0.47-0.03,0.93-0.04,1.4c-0.92-1.19-1.88-2.36-2.76-3.58
			c-2.89-4.01-2.5-5.16,2.59-5.53c8.93-0.65,17.41,1.18,25.24,5.68c-0.33,0.45-0.79,0.66-1.32,0.76c-2.48,0.15-4.63-1.05-6.9-1.72
			c-4.37-1.29-8.77-2.53-13.35-2.66c-4.53-0.12-4.84,0.41-3.49,4.67C298.81,138.01,298.78,138.34,298.74,138.67z"/>
		<path class="st12" d="M261.47,172.01c-1.82-0.09-2.02,1.02-2.07,2.52c-0.24,7.69,0.72,15.09,4.65,21.89
			c0.8,1.39,1.73,2.78,1.95,4.44c-0.21,0.33-0.46,0.34-0.74,0.09c-2.86-3.98-5.13-8.23-5.83-13.17c-0.84-0.91,0.36-2.33-0.8-3.15
			c-1.02-1.46-0.23-3.13-0.55-4.68c-0.55-2.33-0.33-4.71-0.18-7.04c0.09-1.35,0.44-3.26,2.76-2.1
			C260.93,171.22,261.2,171.61,261.47,172.01z"/>
		<path class="st30" d="M322.26,136.72c0.5-0.03,1.01-0.05,1.51-0.08c7.47,3.86,13.02,9.64,17,17c-0.6,0.51-1.19,0.23-1.79-0.01
			c-2.91-3.64-6.12-7.02-9.47-10.26c-1.87-1.81-3.61-3.77-6.01-4.95C322.84,138.1,322.1,137.7,322.26,136.72z"/>
		<path class="st20" d="M339.31,153.08c0.48,0.18,0.97,0.37,1.45,0.55c0,0-0.03,0-0.03,0c0.97,1.73,1.69,3.58,2.67,5.3
			c3.49,7.83,3.84,15.98,2.59,24.32c-0.36,0.22-0.68,0.17-0.96-0.13c-0.87-1.59,0.04-3.18,0.01-4.78c-0.07-3.35,0.09-6.71-0.81-9.99
			c-0.12-0.31-0.21-0.64-0.28-0.96c-0.34-2.03-0.45-4.11-1.46-5.98C341.37,158.65,338.62,156.52,339.31,153.08z"/>
		<path class="st70" d="M345.25,183.22c0.24,0.01,0.49,0.02,0.73,0.02c-1.02,8.96-5.02,16.47-11.18,22.93
			c2.38-4.18,4.75-8.37,7.13-12.55c0.61-2.48,1.28-4.95,1.77-7.46C343.93,185.01,343.83,183.73,345.25,183.22z"/>
		<path class="st10" d="M347.88,115.01c3.91,3.2,8.12,6.06,11.47,9.93c1.2,1.38,2.48,2.69,2.94,4.55c-0.23,0.36-0.49,0.38-0.75,0.04
			c-4.21-5.4-9.39-9.82-14.44-14.38C347.36,115.1,347.62,115.05,347.88,115.01z"/>
		<path class="st71" d="M265.26,200.95c0.25-0.03,0.49-0.06,0.74-0.09c4.84,5.96,10.46,11.05,16.96,15.15
			c-6.25-1.98-10.67-6.46-14.89-11.14C267.01,203.71,265.61,202.67,265.26,200.95z"/>
		<path class="st26" d="M361.54,129.52c0.25-0.01,0.5-0.03,0.75-0.04c3.82,3.74,5.98,8.55,8.48,13.14
			c-0.01,0.68-0.02,1.36-0.04,2.04C367.92,139.47,364.84,134.42,361.54,129.52z"/>
		<path class="st12" d="M268.62,175.3c0.65,0.46,1.3,0.91,1.95,1.37c-3.8,1.26-8.03-0.54-9.2-3.91c0.03-0.25,0.06-0.51,0.09-0.76
			C263.84,173.09,266.23,174.2,268.62,175.3z"/>
		<path class="st71" d="M260.66,170.82c-2.08-0.29-2.33,1.18-2.42,2.63c-0.13,2.16-0.12,4.33-0.16,6.5
			c-1.19-2.91-0.79-5.87-0.17-8.81C258.48,168.42,259.53,169.11,260.66,170.82z"/>
		<path class="st30" d="M343.4,158.93c-1.51-1.45-2.3-3.27-2.67-5.3C342.21,155.1,342.91,156.96,343.4,158.93z"/>
		<path class="st71" d="M258.63,184.64c1.32,0.78,0.77,2.04,0.8,3.15C258.41,186.93,258.81,185.71,258.63,184.64z"/>
		<path class="st60" d="M298.06,244.12c4.16,0,8.32,0,12.48,0C306.38,245.94,302.22,246.36,298.06,244.12z"/>
		<path class="st60" d="M286.94,242.8c2.07-0.03,4.16-0.14,5.9,1.3C290.77,244.14,288.69,244.23,286.94,242.8z"/>
		<path class="st60" d="M334.76,238.22c1.54-1.31,3.31-2.15,5.26-2.61C338.68,237.3,336.88,238.09,334.76,238.22z"/>
		<path class="st60" d="M314.46,244.11c1.55-1.27,3.38-1.37,5.26-1.3C318.27,244.48,316.3,244.05,314.46,244.11z"/>
		<path class="st60" d="M260.73,231.68c1.6-0.18,2.62,0.6,3.29,1.98C262.68,233.39,261.45,232.96,260.73,231.68z"/>
		<path class="st60" d="M326.25,241.48c1.03-1.27,2.46-1.36,3.93-1.31C329.04,241.13,327.69,241.43,326.25,241.48z"/>
		<path class="st60" d="M282.35,241.5c1.48-0.07,2.91,0.03,3.95,1.3C284.85,242.75,283.5,242.43,282.35,241.5z"/>
		<path class="st60" d="M330.18,240.18c0.51-1.2,1.51-1.39,2.64-1.29C332.12,239.69,331.22,240.08,330.18,240.18z"/>
		<path class="st60" d="M341.96,234.29c0.5-1.19,1.5-1.37,2.63-1.31C343.92,233.82,343,234.18,341.96,234.29z"/>
		<path class="st49" d="M233.98,248.22c4.05,2.85,8.25,5.53,12.12,8.62c2.79,2.23,6.24,3.52,8.67,6.22
			c2.95,7.69,7.37,14.56,12.03,21.27c13.55,19.54,30.52,35.47,50.9,47.72c4,2.4,8,4.89,12.49,6.38c8.53,4.67,17.63,7.82,26.95,10.46
			c13.9,3.94,28.11,5.64,42.5,5.88c6.3,0.11,12.61-0.41,18.91-0.81c2.68-0.17,3.56,0.68,3.54,3.43
			c-0.12,15.36-0.06,30.72-0.04,46.09c0,1.63,0.08,3.26,0.12,4.9c0.25,1.86-1.06,3.15-2.04,4.27c-3.44,3.9-6.27,8.32-10.06,11.89
			c-1.36,1.28-2.29,2.87-3.5,4.25c-0.79,0.86-1.72,1.63-2.02,2.84c-1.01,1.03-1.84,2.26-3.18,2.95c-0.4-0.12-0.62,1.05-1.12,0.15
			c-0.55-1.14-0.27-2.36-0.27-3.54c-0.02-17.56-0.01-35.12-0.02-52.68c0-2.85-0.22-5.65-1.86-8.15c-1.81-2.77-4.38-4.16-7.61-4.39
			c-1.63-0.12-3.28-0.11-4.91-0.01c-7.89,0.51-15.57-0.96-23.27-2.3c-11.59-1.63-22.84-4.56-33.67-9.04
			c-10.77-4.14-20.7-9.85-30.25-16.27c-0.99-0.67-1.98-1.33-3.04-1.86c-0.54-0.73-1.18-1.38-1.82-2.03
			c-10.73-8.24-20.6-17.39-29.23-27.84c-6.32-7.65-11.71-15.94-16.69-24.51c-2.66-3.44-3.99-7.57-5.89-11.41
			c-0.52-1.05-0.81-2.22-1.6-3.14c-2.9-6.02-5.63-12.09-6.22-18.87C234,248.55,234.03,248.39,233.98,248.22z"/>
		<path class="st72" d="M361.6,363.36c9.82,1.25,19.65,2.24,29.59,2.2c4.96-0.02,9,4.85,9.02,9.96c0.05,19.73,0.02,39.47,0.01,59.2
			c-1.19-1.42-0.72-3.14-0.73-4.72c-0.04-16.7-0.01-33.4-0.05-50.1c0-1.84-0.17-3.7-0.48-5.52c-0.86-5.13-4.03-7.78-9.24-7.82
			c-2.73-0.02-5.46-0.07-8.19,0.01c-6.79,0.21-13.35-1.33-19.95-2.57c-0.22-0.14-0.29-0.29-0.22-0.43
			C361.46,363.43,361.53,363.36,361.6,363.36z"/>
		<path class="st27" d="M295.36,335.83c8.63,5.6,17.33,11.09,26.74,15.34c2.06,0.93,4.11,1.9,6.17,2.86
			c0.25,0.31,0.21,0.59-0.1,0.84c-7.52-2.27-14.34-5.97-20.91-10.2c-3.27-2.11-6.59-4.14-9.83-6.29c-1.15-0.76-2.56-1.24-3.25-2.59
			C294.58,335.4,294.97,335.44,295.36,335.83z"/>
		<path class="st73" d="M328.16,354.86c0.03-0.28,0.07-0.56,0.1-0.84c7.5,2.44,14.86,5.33,22.6,6.98c3.58,0.76,7.16,1.57,10.74,2.35
			c0,0.21,0,0.43-0.01,0.64C350.06,362.38,338.71,360.09,328.16,354.86z"/>
		<path class="st32" d="M406.17,428.84c4.68-5.83,9.38-11.65,14.03-17.5c0.74-0.92,1.3-1.98,1.95-2.98
			c0.12,0.04,0.25,0.05,0.38,0.03c0.16,1.88-0.69,3.52-1.85,4.72c-3.54,3.66-6.08,8.16-9.97,11.53c-1.76,1.53-3.08,3.58-4.59,5.4
			C405.76,429.63,405.77,429.23,406.17,428.84z"/>
		<path class="st32" d="M401.35,434.56c0.63-1.33,1.81-2.15,2.81-3.15c0.39-0.33,0.58-1.07,1.33-0.65
			C404.83,432.81,403.77,434.43,401.35,434.56z"/>
		<path class="st39" d="M405.49,430.77c-0.44,0.22-0.89,0.43-1.33,0.65c0.22-1.21,0.96-2.02,2.01-2.57
			c-0.02,0.4-0.04,0.81-0.05,1.21C405.91,430.29,405.7,430.53,405.49,430.77z"/>
		<path class="st74" d="M295.36,335.83c-0.4-0.01-0.8-0.03-1.19-0.04c-0.24-0.19-0.48-0.39-0.72-0.58c0.02-0.25,0.05-0.51,0.07-0.76
			C294.35,334.63,295.12,334.87,295.36,335.83z"/>
		<path class="st49" d="M427.74,117.63c2.21-0.36,3.31-2.33,4.93-3.51c4.43-3.21,9.39-5.45,14.12-8.13
			c5.61-2.65,11.44-4.55,17.63-5.33c3.12-0.39,6.14-1.28,9.33-1.32c10.07-0.12,19.82,1.54,29.29,4.92
			c8.44,2.52,15.93,6.68,22.22,12.91l-0.05-0.03c3.88,4.1,5.85,9.35,8.54,14.17c7.11,12.74,10.84,26.72,14.17,40.74
			c1.14,4.81,2.3,9.96,1.21,15.11c-2.55,7.05-4.71,14.26-8.84,20.65c-12.5,19.35-29.77,31.64-52.76,34.95
			c-25.89,3.73-48.09-4.05-65.97-23.07c-11.34-12.06-18.14-26.41-19.55-43.22c-0.39-4.68-0.32-9.34-0.59-14
			c3.11-15.66,10.38-29.08,21.77-40.28C424.71,120.69,426.22,119.15,427.74,117.63z"/>
		<path class="st50" d="M548.28,194.32c1.49,3.87-0.52,7.27-1.88,10.52c-4.22,10.11-10.24,19.01-18.38,26.54
			c-7.26,6.71-15.46,11.72-24.6,15.28c-10.88,4.24-22.28,5.53-33.78,4.52c-10.42-0.91-20.31-4.01-29.52-9.3
			c-14.94-8.58-25.57-20.88-32.65-36.44c-0.49-1.08-1.2-2.17-0.01-3.26c2.03,5.38,5.74,9.76,9.33,14.01
			c5.1,6.02,10.65,11.73,17.2,16.31c5.75,4.02,12.01,6.96,18.71,8.95c2.17,0.65,4.12,2.04,6.5,1.99c0.98,0.79,2.3-0.12,3.28,0.65
			c1.53,0.22,3.05,0.44,4.58,0.66c7.23,0.38,14.46,1.05,21.63-0.65c0.43,0,0.87,0,1.3-0.01c1.5-0.55,3.1-0.72,4.59-1.3
			c0.22,0,0.43,0,0.65-0.01c1.3-0.49,2.73-0.54,3.94-1.3c0.21,0,0.43,0,0.64-0.01c1.05-0.55,2.25-0.73,3.29-1.3
			c0.21,0,0.43,0,0.64-0.01c1.05-0.54,2.25-0.73,3.29-1.3c4.03-2,8.09-3.94,11.78-6.56c0.92-0.59,1.71-1.35,2.62-1.96
			c4.15-3.71,8.3-7.43,12.44-11.14c0.75-1.19,1.9-2.06,2.62-3.27c3.55-5.76,7.31-11.4,9.91-17.7
			C546.94,196.92,546.51,195.06,548.28,194.32z"/>
		<path class="st24" d="M549.13,187.17c-0.75-17.12-5.77-33.16-12.55-48.7c-3.22-7.39-7.16-14.43-11.37-21.31
			c3.38,1.71,4.48,5.21,6.13,8.16c7.77,13.88,13.01,28.72,16.43,44.23c0.09,0.41,0.35,0.79,0.53,1.19c0.78,1.46-0.23,3.16,0.61,4.61
			c0.43,2.62,0.87,5.24,1.3,7.85c-1.1,1.17-0.4,2.64-0.63,3.95C549.44,187.14,549.28,187.15,549.13,187.17z"/>
		<path class="st75" d="M488.68,244.11c-2.02,1.21-4.26,1.44-6.53,1.29c-5.03-0.33-10.12,0.8-15.09-0.64
			C474.27,244.64,481.5,245.17,488.68,244.11z"/>
		<path class="st75" d="M536.49,215.94c-0.17,1.66-1.4,2.46-2.62,3.27C534.04,217.56,535.27,216.76,536.49,215.94z"/>
		<path class="st75" d="M494.58,242.8c-1.35,1.08-2.92,1.35-4.59,1.3C491.33,243.01,492.91,242.75,494.58,242.8z"/>
		<path class="st75" d="M499.17,241.5c-1.05,1.25-2.46,1.36-3.94,1.3C496.37,241.84,497.72,241.54,499.17,241.5z"/>
		<path class="st75" d="M503.1,240.19c-0.86,1.02-2,1.34-3.29,1.3C500.67,240.45,501.81,240.13,503.1,240.19z"/>
		<path class="st75" d="M521.42,230.35c-0.57,1.05-1.29,1.91-2.62,1.96C519.38,231.27,520.1,230.41,521.42,230.35z"/>
		<path class="st75" d="M507.03,238.88c-0.87,1.01-2,1.34-3.29,1.3C504.6,239.14,505.74,238.82,507.03,238.88z"/>
		<path class="st75" d="M462.48,244.1c-1.11-0.15-2.36,0.43-3.28-0.65C460.3,243.6,461.56,243.02,462.48,244.1z"/>
		<path class="st70" d="M503.71,104.67c-6.38-1.68-12.72-3.48-19.32-4.17c-11.99-1.26-23.54,0.54-34.8,4.68
			c-0.91,0.33-1.86,0.55-2.8,0.81c-0.01-0.25-0.03-0.51-0.04-0.76c6.77-2.73,13.63-5.13,20.96-5.87c5.89-0.47,11.77-0.58,17.65,0.04
			c0.73,0.83,1.76,0.48,2.65,0.65c1.66,0.86,3.56-0.26,5.21,0.66c0.52,0.68,1.29,0.55,2,0.63c0.95,0.82,2.29-0.15,3.23,0.69
			c1.62,1.04,3.49,1.39,5.3,1.9C503.97,104.19,503.96,104.44,503.71,104.67z"/>
		<path class="st27" d="M503.71,104.67c0.02-0.25,0.04-0.5,0.05-0.75c4.59,0.96,8.68,3,12.52,5.64c0.97,0.66,2.11,1.07,3.18,1.59
			c2.07,1.88,4.44,3.47,5.81,6.02c-3.41-1.9-6.21-4.67-9.6-6.66C511.81,108.26,507.61,106.78,503.71,104.67z"/>
		<path class="st27" d="M485.36,99.39c-5.88-0.01-11.77-0.03-17.65-0.04c4.4-1.41,8.91-0.38,13.37-0.61
			C482.49,98.67,484.1,98.12,485.36,99.39z"/>
		<path class="st27" d="M493.23,100.7c-1.73-0.29-3.6,0.54-5.21-0.66C489.75,100.26,491.63,99.36,493.23,100.7z"/>
		<path class="st27" d="M498.46,102.02c-1.09-0.17-2.33,0.34-3.23-0.69C496.32,101.46,497.57,100.88,498.46,102.02z"/>
		<path class="st76" d="M240.54,267.53c2.36,4.86,4.71,9.72,7.07,14.57c-0.22,0.01-0.44,0.02-0.66,0.02
			c-2.56-4.39-4.99-8.85-6.6-13.7C240.12,268.06,240.18,267.77,240.54,267.53z"/>
		<path class="st64" d="M548.92,175.34c-1.16-1.41-0.42-3.07-0.61-4.61C549.48,172.13,548.73,173.8,548.92,175.34z"/>
		<path class="st33" d="M240.54,267.53c-0.06,0.3-0.12,0.6-0.18,0.89c-4.06-5.08-5.23-11.35-7.06-17.34
			c-0.24-0.77-0.24-1.76,0.6-2.39C235.74,255.1,237.78,261.44,240.54,267.53z"/>
		<path class="st49" d="M513.48,548.87c1.95,2.18,4.38,4.02,5.08,7.09c0.9,7.06-1.52,12.24-6.73,14.43
			c-4.92,2.07-10.98,0.5-14.5-3.65c-2.94-3.47-2.35-7.49-2.01-11.5c3.3-6.29,8.34-9.16,15.49-7.83
			C511.74,547.83,512.91,547.82,513.48,548.87z"/>
		<path class="st33" d="M513.48,548.87c-0.89-0.49-1.77-0.97-2.66-1.46c0.69-0.01,1.38-0.02,2.06-0.03
			C513.08,547.88,513.28,548.38,513.48,548.87z"/>
		<path class="st77" d="M254.19,544.11c1.39,1.04,2.79,2.05,3.53,3.72c1.53,3.43,0.08,6.86-3.53,7.08
			c-5.82,0.36-11.68,0.13-17.53,0.13c-0.72,0-1.18-0.47-1.43-1.13c-0.36-5.37,4.01-7.21,7.47-9.32
			C246.21,542.43,250.26,541.93,254.19,544.11z"/>
		<path class="st9" d="M254.19,544.11c-4.94-1.35-9.54-0.95-13.73,2.33c-2.53,1.98-4.61,4.18-5.23,7.46
			c-1.51-1.47-0.36-2.96,0.24-4.17c2.45-4.92,12.18-8.7,17.35-6.9C253.46,543.06,253.97,543.42,254.19,544.11z"/>
		<path class="st44" d="M261.37,172.75c2.31,3.08,5.73,3.55,9.2,3.91c4.25,1.22,8.48,0.69,12.78,0.18
			c8.25-0.98,12.21-7.21,16.49-13.04c1.54-2.1,2.39-4.55,2.24-7.33c-0.19-3.58,0.05-7.18-0.09-10.76c-0.1-2.74-0.62-5.42-3.25-7.05
			c-0.83-1.66-3.18-3.02-2.19-5c1.06-2.12,3.6-1.6,5.62-1.52c5.32,0.21,10.39,1.65,15.41,3.28c1.54,0.5,3.11,0.87,4.67,1.3
			c7,4.08,12.12,10.13,17.05,16.36c0.96,2.8,2.26,5.42,3.94,7.85c0.58,2.16,0.46,4.46,1.33,6.56l0-0.01
			c1.33,7.66,0.92,15.2-1.64,22.58c-0.21,0.61-0.39,1.25-0.97,1.64c-2.11,2.76-3.51,5.96-5.28,8.92
			c-3.24,5.42-7.64,9.35-13.16,12.04c-7.25,3.53-14.84,6.28-23.05,5.84c-9.99-0.53-18.97-3.68-26.28-10.98
			c-4.41-4.41-8.63-8.81-11-14.77c-2.37-5.96-3.31-12.08-3.08-18.44C260.14,173.44,260.41,172.84,261.37,172.75z"/>
		<path class="st23" d="M341.96,191.7c3.18-7.83,2.73-16.04,2.61-24.22c2.1,5.17,1.46,10.45,0.68,15.74
			c-0.92,2.59-0.83,5.42-1.98,7.97c-0.39,0.86-0.46,1.86-1.34,2.44C341.94,192.99,341.95,192.35,341.96,191.7z"/>
		<path class="st23" d="M344.58,167.49c-1.6-1.95-1.23-4.3-1.33-6.56C344.24,163.01,344.64,165.2,344.58,167.49z"/>
		<path class="st22" d="M504.5,140.36c9.77,7.33,15.17,17.24,16.78,29.18c1.54,11.45-0.97,22.09-7.59,31.6
			c-8.05,11.55-19.2,17.71-33.25,18.54c-7.6,0.45-15.02-0.38-21.97-3.78c-0.67-0.33-1.28-0.78-1.92-1.17
			c0.38-1.7,1.69-1.05,2.44-0.69c7.8,3.78,16.19,3.55,24.38,2.85c11.86-1.01,21.64-6.06,28.36-16.58
			c3.25-5.08,4.69-10.72,6.99-16.08c0.85-1.58,0.38-3.31,0.54-4.96c0.61-2.18,0.22-4.36-0.02-6.53c-0.13-1.81,0.31-3.66-0.4-5.42
			c-1.7-5.2-3-10.56-6.21-15.14c-2.58-3.86-5.72-7.28-8.49-11C504.13,140.85,504.25,140.58,504.5,140.36z"/>
		<path class="st3" d="M520.09,172.74c0.14,2.17,0.85,4.34,0.01,6.51c-0.87,1.67,0.22,3.58-0.63,5.26c-0.84,2.35-1.7,4.69-2.5,7.06
			c-3.74,11.11-10.98,18.71-21.77,23.57c-8.76,3.95-17.72,2.6-26.64,2.61c-3.01,0.01-6.01-1.75-9.03-2.63
			c-0.96-0.28-1.86-1.26-2.98-0.37c-0.42-0.29-0.84-0.58-1.26-0.86c-6.4-3.75-11.09-9.3-15.64-14.98c-0.87-1.55-1.75-3.1-2.62-4.64
			c-0.59-0.52-0.45-1.3-0.69-1.95c-1.39-4.22-2.25-8.56-2.98-12.93c-0.44-2.1-0.53-4.24-0.24-6.34c0.17-1.21,0.22-3.06,2.45-2.26
			c0.24,0.2,0.48,0.4,0.72,0.6c0.47,0.42,1.06,0.75,0.99,1.52c-0.09,0.32-0.26,0.58-0.53,0.77c-1.51,1.31-0.95,3.08-0.81,4.61
			c1.31,13.9,7.8,24.85,19.46,32.43c5.62,3.65,11.95,5.79,18.84,5.67c1.75-0.03,3.5-0.08,5.24,0.01c9.99,0.54,18.15-4,25.79-9.61
			c4.52-3.32,6.97-8.46,9.17-13.38c5.59-12.53,5.29-25.16-0.76-37.57c-0.56-1.16-1.36-2.28-1.04-3.69c0.1-0.13,0.21-0.27,0.31-0.4
			c2.69,3.03,4.23,6.65,5.13,10.52c0.36,1.57,0.76,3.1,1.4,4.57C520.3,168.73,519.25,170.83,520.09,172.74z"/>
		<path class="st78" d="M504.5,140.36c-0.03,0.3-0.06,0.59-0.1,0.89c-0.25,0.2-0.54,0.29-0.86,0.25c-1.24-0.32-2.28-0.98-3.19-1.88
			c-3.96-2.63-8.36-4.34-12.95-5.17c-3.39-0.61-6.72-1.97-10.3-1.53c-1.6,0.2-3.71-0.3-4.49,1.27c-0.83,1.67,1.51,2.32,2.22,3.58
			c0.22,0.24,0.4,0.51,0.57,0.78c0.48,0.87,0.91,1.76,1.33,2.67c0.15,0.32,0.25,0.65,0.34,0.99c1.83,5.79,1.94,11.64,0.6,17.54
			c-1.61,3.25-2.93,6.68-5.59,9.31c-0.56,0.4-1.13,0.76-1.85,0.42c-0.22-0.3-0.22-0.61,0.01-0.91c2.76-4.29,5.69-8.5,6.14-13.83
			c0.63-7.42-1.17-14.04-6.28-19.58c-1.84-2-1.61-3.09,1.14-3.54C483.63,129.58,494.62,132.85,504.5,140.36z"/>
		<path class="st27" d="M470.24,168.58c0.03,0.29,0.06,0.58,0.1,0.86c-0.97,3.03-3.82,4.08-6.15,5.5
			c-7.9,4.81-16.03,4.56-24.18,0.54c-1.27-0.62-2.47-1.4-3.05-2.81c-0.22-0.44-0.45-0.87-0.67-1.31c4.54,2.5,9,4.85,14.52,4.91
			c6.68,0.07,12.34-1.95,17.36-6.16C468.83,169.57,469.55,169.09,470.24,168.58z"/>
		<path class="st27" d="M439.64,198.89c1.12-0.01,1.85,0.73,2.35,1.53c3.11,4.92,7.21,8.81,12.04,12c0.51,0.34,0.84,0.96,1.25,1.46
			C448.38,210.65,443.38,205.42,439.64,198.89z"/>
		<path class="st27" d="M433.78,179.81c1.03,4.2,2.06,8.41,3.08,12.61c-1.14,0.29-0.66-1.11-1.35-1.29
			c-0.75-1.23-1.21-2.55-1.2-4.02c-0.28-2.16-1.05-4.24-0.97-6.45C433.32,180.3,433.46,180.01,433.78,179.81z"/>
		<path class="st27" d="M435.57,170.77c-1.58,0.12-1.91,1.18-1.89,2.51c0.04,2.18,0.07,4.35,0.1,6.53c0,0-0.19,0.17-0.19,0.17
			c-0.23,0.24-0.4,0.2-0.52-0.1c-0.04-0.4-0.09-0.81-0.13-1.21c-0.4-2.21-0.44-4.43,0.02-6.64c0.24-0.82-0.44-2.06,0.68-2.4
			C434.26,169.45,435.26,169.83,435.57,170.77z"/>
		<path class="st79" d="M433.07,179.88c0.18,0.01,0.35,0.05,0.52,0.1c-0.07,2.41,1.08,4.7,0.73,7.14
			C433.29,184.81,432.8,182.41,433.07,179.88z"/>
		<path class="st79" d="M432.97,172.03c-0.01,2.21-0.02,4.43-0.02,6.64C432.03,176.45,432.06,174.24,432.97,172.03z"/>
		<path class="st79" d="M435.52,191.13c0.45,0.43,0.9,0.86,1.35,1.29c0.05,0.61,0.1,1.22,0.16,1.82
			C435.82,193.55,435.76,192.3,435.52,191.13z"/>
		<path class="st3" d="M503.74,141.27c0.22-0.01,0.44-0.01,0.66-0.02c3.7,2.8,6.15,6.61,8.53,10.48c0,0-0.06,0.05-0.06,0.05
			c-0.21,0.09-0.48,0.19-0.62,0.07C508.57,149.01,505.84,145.4,503.74,141.27z"/>
		<path class="st78" d="M520.09,172.74c-1.24-1.86-0.37-3.95-0.63-5.92C520.74,168.68,519.85,170.77,520.09,172.74z"/>
		<path class="st78" d="M519.47,184.51c0.26-1.75-0.62-3.63,0.63-5.26C519.84,181,520.74,182.88,519.47,184.51z"/>
		<path class="st44" d="M503.74,141.27c3.41,3.19,5.47,7.54,9.13,10.51c1.66,4.57,4.25,8.73,5.23,13.63
			c2.24,11.17,1.14,21.77-4.67,31.65c-1.59,2.7-2.79,5.67-5.03,7.98c-4,4.14-9.03,6.57-14.07,9.21c-7.85,4.11-16.23,3.63-24.28,2.72
			c-8.05-0.91-15.62-4.22-21.5-10.56c-5.08-5.48-10.07-10.97-11.61-18.51c-0.92-4.52-2.33-8.98-2.06-13.73
			c0.14-2.41,1-1.46,2.04-0.81c6.13,4.9,13.38,4.71,20.54,4.17c4.23-0.32,7.39-3.48,10.75-5.79c1.2-0.83,2.61-1.6,3.42-2.96
			c1.74-2.84,3.49-5.68,5.23-8.53c1.8-4.94,1.13-9.98,0.52-14.99c-0.16-1.35-0.74-2.67-1.16-4v0c-0.45-0.87-0.59-1.89-1.3-2.62l0,0
			c-0.51-0.85-1.23-1.51-1.9-2.23c-2.11-2.26-1.91-2.92,1.14-3.73c2.03-0.54,4.19-0.54,6.15-0.16c7.2,1.38,14.38,2.93,20.77,6.83
			C501.98,139.99,502.86,140.63,503.74,141.27z"/>
		<path class="st57" d="M471.65,168.79c-1.14,2.83-3.92,3.83-6.17,5.36c-9.04,6.13-18.24,5.24-27.46,0.38
			c-0.44-0.23-0.73-0.77-1.08-1.16c0.01-0.23,0.01-0.46,0.02-0.69c5.83,4.76,12.71,5.29,19.73,4.53c4.68-0.51,8.23-3.65,11.89-6.34
			c0.61-0.45,1.17-0.95,1.75-1.43C470.77,169.22,471.21,169,471.65,168.79z"/>
		<path class="st57" d="M501.09,139.35c-3.83-1.48-7.56-3.28-11.5-4.35c-4.23-1.15-8.51-2.39-12.99-2.23
			c-1.64,0.06-3.65,0.08-4.36,1.48c-0.58,1.14,1.49,1.84,2.12,2.92c0.26,0.45,0.39,0.98,0.58,1.48c-1.5-1.43-4.45-2.46-3.53-4.81
			c0.82-2.11,3.71-1.79,5.88-1.72c8.04,0.27,15.56,2.58,22.76,6.05C500.48,138.38,500.75,138.95,501.09,139.35z"/>
		<path class="st57" d="M476.24,141.28c2.81,6.24,2.98,12.57,0.64,18.99C478.22,153.88,477.68,147.56,476.24,141.28z"/>
		<path class="st57" d="M474.93,138.65c1.18,0.51,1.37,1.5,1.3,2.62C475.38,140.61,475.02,139.7,474.93,138.65z"/>
	</g>
</g>
</svg>
